<svg width="126" height="235" viewBox="0 0 126 235" fill="none" xmlns="http://www.w3.org/2000/svg">
<g filter="url(#filter0_d_24_90)">
<path d="M44.931 204.853C49.9689 205.006 53.3911 208.352 54.4724 210.005C58.0982 211.341 56.9532 209.242 57.7165 207.525C58.4798 205.807 55.9991 205.807 58.6707 200.082C61.3423 194.357 60.9606 190.35 60.0065 187.106C59.0523 183.862 53.7091 183.862 52.1825 180.809C50.6558 177.755 54.2816 172.412 53.1366 168.786C51.9916 165.16 45.1218 162.871 43.4043 158.481C41.6869 154.092 47.0301 149.703 45.6943 145.887C44.3585 142.07 38.2519 141.879 41.8777 134.437C44.7783 128.483 41.4324 126.231 39.3969 125.85C35.1351 125.722 27.5655 124.17 31.3821 118.98C36.1528 112.492 35.1987 109.82 34.0537 107.912C32.9087 106.003 27.1838 106.576 31.3821 98.9428C35.5803 91.3096 34.6262 87.6838 33.0995 85.0122C31.5729 82.3406 30.6188 80.6231 33.672 78.524C36.7253 76.4249 39.7786 73.9441 39.9694 70.8909C40.1602 67.8376 35.1987 65.166 38.0611 62.3035C40.9235 59.4411 40.7327 52.7621 34.6262 51.0446C28.5196 49.3271 27.9472 55.8153 23.9397 59.4411C19.9323 63.0668 13.2533 61.5402 9.43672 65.9293C5.62014 70.3184 13.0625 73.1808 14.7799 79.4782C16.4974 85.7755 10.5817 86.9205 9.81838 93.4087C9.05506 99.8969 18.7874 99.1336 14.2075 104.286C9.62755 109.438 6.19263 114.4 6.0018 120.506C5.81097 126.613 20.8865 127.567 18.2149 130.43C15.5433 133.292 14.7799 140.925 18.7874 143.215C22.7948 145.505 21.6498 148.558 20.5048 154.092C19.3599 159.626 22.9856 161.916 26.993 161.916C31.0004 161.916 34.4354 165.161 31.7637 168.786C29.0921 172.412 27.9472 181.19 34.4354 182.144C40.9236 183.098 43.2135 189.587 41.6869 192.831C40.1602 196.075 38.6336 204.662 44.931 204.853Z" fill="#1576B4"/>
<path d="M44.931 204.853C49.9689 205.006 53.3911 208.352 54.4724 210.005C58.0982 211.341 56.9532 209.242 57.7165 207.525C58.4798 205.807 55.9991 205.807 58.6707 200.082C61.3423 194.357 60.9606 190.35 60.0065 187.106C59.0523 183.862 53.7091 183.862 52.1825 180.809C50.6558 177.755 54.2816 172.412 53.1366 168.786C51.9916 165.16 45.1218 162.871 43.4043 158.481C41.6869 154.092 47.0301 149.703 45.6943 145.887C44.3585 142.07 38.2519 141.879 41.8777 134.437C44.7783 128.483 41.4324 126.231 39.3969 125.85C35.1351 125.722 27.5655 124.17 31.3821 118.98C36.1528 112.492 35.1987 109.82 34.0537 107.912C32.9087 106.003 27.1838 106.576 31.3821 98.9428C35.5803 91.3096 34.6262 87.6838 33.0995 85.0122C31.5729 82.3406 30.6188 80.6231 33.672 78.524C36.7253 76.4249 39.7786 73.9441 39.9694 70.8909C40.1602 67.8376 35.1987 65.166 38.0611 62.3035C40.9235 59.4411 40.7327 52.7621 34.6262 51.0446C28.5196 49.3271 27.9472 55.8153 23.9397 59.4411C19.9323 63.0668 13.2533 61.5402 9.43672 65.9293C5.62014 70.3184 13.0625 73.1808 14.7799 79.4782C16.4974 85.7755 10.5817 86.9205 9.81838 93.4087C9.05506 99.8969 18.7874 99.1336 14.2075 104.286C9.62755 109.438 6.19263 114.4 6.0018 120.506C5.81097 126.613 20.8865 127.567 18.2149 130.43C15.5433 133.292 14.7799 140.925 18.7874 143.215C22.7948 145.505 21.6498 148.558 20.5048 154.092C19.3599 159.626 22.9856 161.916 26.993 161.916C31.0004 161.916 34.4354 165.161 31.7637 168.786C29.0921 172.412 27.9472 181.19 34.4354 182.144C40.9236 183.098 43.2135 189.587 41.6869 192.831C40.1602 196.075 38.6336 204.662 44.931 204.853Z" stroke="white" stroke-width="4" stroke-linecap="round"/>
</g>
<g filter="url(#filter1_d_24_90)">
<path d="M73.565 158.279C68.8634 160.095 66.7456 164.387 66.2744 166.306C63.2975 168.769 63.6809 166.409 62.3909 165.042C61.1008 163.676 63.441 162.852 59.0208 158.339C54.6005 153.825 53.6305 149.918 53.4539 146.541C53.2773 143.164 58.3177 141.391 58.7444 138.004C59.1712 134.617 53.9775 130.78 53.8543 126.98C53.731 123.18 59.4514 118.739 59.6148 114.029C59.7783 109.319 53.2812 106.952 53.2746 102.908C53.268 98.8646 58.9651 96.6579 53.0748 90.8408C48.3626 86.1871 50.7714 82.9525 52.5649 81.9169C56.543 80.3824 63.1683 76.406 57.8454 72.7764C51.1917 68.2393 51.2051 65.4024 51.6518 63.2223C52.0985 61.0422 57.6889 59.6822 51.1953 53.875C44.7016 48.0679 44.3983 44.331 44.9517 41.3041C45.5052 38.2773 45.8352 36.3405 42.2583 35.3737C38.6814 34.4069 34.9779 33.0801 33.7845 30.2632C32.5912 27.4464 36.3848 23.2795 32.7346 21.5293C29.0844 19.7791 27.0477 13.4154 32.2381 9.76854C37.4285 6.12172 40.1219 12.0521 45.1055 14.1424C50.0891 16.2326 55.8829 12.5758 60.9398 15.4494C65.9968 18.323 59.9263 23.4932 60.3962 30.0036C60.8662 36.5141 66.8266 35.6308 69.7 41.4979C72.5734 47.365 63.1394 49.875 69.1698 53.2153C75.2001 56.5556 80.087 60.0959 82.2937 65.793C84.5005 71.49 70.5961 77.3935 74.0663 79.207C77.5365 81.0205 80.79 87.9677 77.7697 91.4579C74.7495 94.9481 76.8429 97.4483 79.7597 102.289C82.6764 107.129 80.0162 110.492 76.2359 111.823C72.4557 113.153 70.2921 117.353 74.0157 119.886C77.7392 122.42 81.7327 130.32 75.9289 133.374C70.1252 136.427 70.1184 143.308 72.6352 145.861C75.152 148.415 79.4421 156.009 73.565 158.279Z" fill="#1776B1"/>
<path d="M73.565 158.279C68.8634 160.095 66.7456 164.387 66.2744 166.306C63.2975 168.769 63.6809 166.409 62.3909 165.042C61.1008 163.676 63.441 162.852 59.0208 158.339C54.6005 153.825 53.6305 149.918 53.4539 146.541C53.2773 143.164 58.3177 141.391 58.7444 138.004C59.1712 134.617 53.9775 130.78 53.8543 126.98C53.731 123.18 59.4514 118.739 59.6148 114.029C59.7783 109.319 53.2812 106.952 53.2746 102.908C53.268 98.8646 58.9651 96.6579 53.0748 90.8408C48.3626 86.1871 50.7714 82.9525 52.5649 81.9169C56.543 80.3824 63.1683 76.406 57.8454 72.7764C51.1917 68.2393 51.2051 65.4024 51.6518 63.2223C52.0985 61.0422 57.6889 59.6822 51.1953 53.875C44.7016 48.0679 44.3983 44.331 44.9517 41.3041C45.5052 38.2773 45.8352 36.3405 42.2583 35.3737C38.6814 34.4069 34.9779 33.0801 33.7845 30.2632C32.5912 27.4464 36.3848 23.2795 32.7346 21.5293C29.0844 19.7791 27.0477 13.4154 32.2381 9.76854C37.4285 6.12172 40.1219 12.0521 45.1055 14.1424C50.0891 16.2326 55.8829 12.5758 60.9398 15.4494C65.9968 18.323 59.9263 23.4932 60.3962 30.0036C60.8662 36.5141 66.8266 35.6308 69.7 41.4979C72.5734 47.365 63.1394 49.875 69.1698 53.2153C75.2001 56.5556 80.087 60.0959 82.2937 65.793C84.5005 71.49 70.5961 77.3935 74.0663 79.207C77.5365 81.0205 80.79 87.9677 77.7697 91.4579C74.7495 94.9481 76.8429 97.4483 79.7597 102.289C82.6764 107.129 80.0162 110.492 76.2359 111.823C72.4557 113.153 70.2921 117.353 74.0157 119.886C77.7392 122.42 81.7327 130.32 75.9289 133.374C70.1252 136.427 70.1184 143.308 72.6352 145.861C75.152 148.415 79.4421 156.009 73.565 158.279Z" stroke="white" stroke-width="4" stroke-linecap="round"/>
</g>
<g filter="url(#filter2_d_24_90)">
<path d="M83.8818 198.618C78.8536 198.967 75.5643 202.444 74.5481 204.138C70.9771 205.614 72.0395 203.472 71.2099 201.786C70.3803 200.099 72.8592 200.003 69.9668 194.386C67.0744 188.769 67.2997 184.75 68.1269 181.471C68.954 178.193 74.2932 177.985 75.6998 174.874C77.1065 171.764 73.2755 166.566 74.2784 162.898C75.2814 159.231 82.0569 156.675 83.6022 152.223C85.1475 147.77 79.6375 143.592 80.8238 139.726C82.01 135.861 88.1045 135.432 84.1918 128.137C81.0616 122.3 84.3173 119.92 86.3364 119.459C90.5901 119.166 98.0935 117.321 94.0778 112.283C89.0581 105.985 89.9075 103.279 90.9773 101.327C92.0472 99.3757 97.79 99.7249 93.2978 92.2609C88.8056 84.797 89.6179 81.1368 91.0394 78.4078C92.4609 75.6788 93.3474 73.9255 90.2148 71.9468C87.0821 69.9681 83.9346 67.6081 83.6251 64.5646C83.3155 61.521 88.1693 58.6583 85.1976 55.9095C82.226 53.1606 82.1567 46.4792 88.1917 44.5254C94.2268 42.5715 95.0514 49.0325 99.1969 52.4995C103.342 55.9665 109.957 54.1811 113.941 58.4183C117.926 62.6554 110.601 65.8054 109.13 72.1649C107.659 78.5243 113.614 79.4381 114.63 85.8917C115.645 92.3453 105.89 91.9614 110.667 96.9316C115.444 101.902 119.07 106.726 119.498 112.82C119.927 118.915 104.9 120.455 107.681 123.211C110.462 125.968 111.522 133.565 107.606 136.01C103.691 138.454 104.954 141.46 106.314 146.945C107.673 152.431 104.139 154.86 100.135 155.016C96.1304 155.172 92.8244 158.547 95.6351 162.066C98.4458 165.585 99.9316 174.312 93.4855 175.518C87.0394 176.724 85.0037 183.297 86.6554 186.479C88.3072 189.661 90.1669 198.183 83.8818 198.618Z" fill="#1776B1"/>
<path d="M83.8818 198.618C78.8536 198.967 75.5643 202.444 74.5481 204.138C70.9771 205.614 72.0395 203.472 71.2099 201.786C70.3803 200.099 72.8592 200.003 69.9668 194.386C67.0744 188.769 67.2997 184.75 68.1269 181.471C68.954 178.193 74.2932 177.985 75.6998 174.874C77.1065 171.764 73.2755 166.566 74.2784 162.898C75.2814 159.231 82.0569 156.675 83.6022 152.223C85.1475 147.77 79.6375 143.592 80.8238 139.726C82.01 135.861 88.1045 135.432 84.1918 128.137C81.0616 122.3 84.3173 119.92 86.3364 119.459C90.5901 119.166 98.0935 117.321 94.0778 112.283C89.0581 105.985 89.9075 103.279 90.9773 101.327C92.0472 99.3757 97.79 99.7249 93.2978 92.2609C88.8056 84.797 89.6179 81.1368 91.0394 78.4078C92.4609 75.6788 93.3474 73.9255 90.2148 71.9468C87.0821 69.9681 83.9346 67.6081 83.6251 64.5646C83.3155 61.521 88.1693 58.6583 85.1976 55.9095C82.226 53.1606 82.1567 46.4792 88.1917 44.5254C94.2268 42.5715 95.0514 49.0325 99.1969 52.4995C103.342 55.9665 109.957 54.1811 113.941 58.4183C117.926 62.6554 110.601 65.8054 109.13 72.1649C107.659 78.5243 113.614 79.4381 114.63 85.8917C115.645 92.3453 105.89 91.9614 110.667 96.9316C115.444 101.902 119.07 106.726 119.498 112.82C119.927 118.915 104.9 120.455 107.681 123.211C110.462 125.968 111.522 133.565 107.606 136.01C103.691 138.454 104.954 141.46 106.314 146.945C107.673 152.431 104.139 154.86 100.135 155.016C96.1304 155.172 92.8244 158.547 95.6351 162.066C98.4458 165.585 99.9316 174.312 93.4855 175.518C87.0394 176.724 85.0037 183.297 86.6554 186.479C88.3072 189.661 90.1669 198.183 83.8818 198.618Z" stroke="white" stroke-width="4" stroke-linecap="round"/>
</g>
<path d="M30.4257 60.3018C24.7009 67.2352 17.2585 88.8117 24.1284 119.65C30.9982 150.488 46.0737 185.422 53.5161 199.035" stroke="white" stroke-width="4" stroke-linecap="round"/>
<path d="M40.78 18.2467C48.4682 22.9092 62.5981 40.8334 66.2622 72.2142C69.9263 103.595 67.1904 141.545 64.6437 156.849" stroke="white" stroke-width="4" stroke-linecap="round"/>
<path d="M93.9655 57.4632C99.8528 64.2593 107.804 85.6536 101.665 116.646C95.5268 147.637 81.282 182.919 74.1638 196.704" stroke="white" stroke-width="4" stroke-linecap="round"/>
<defs>
<filter id="filter0_d_24_90" x="0" y="48.7607" width="66.7227" height="185.668" filterUnits="userSpaceOnUse" color-interpolation-filters="sRGB">
<feFlood flood-opacity="0" result="BackgroundImageFix"/>
<feColorMatrix in="SourceAlpha" type="matrix" values="0 0 0 0 0 0 0 0 0 0 0 0 0 0 0 0 0 0 127 0" result="hardAlpha"/>
<feOffset dy="18"/>
<feGaussianBlur stdDeviation="2"/>
<feComposite in2="hardAlpha" operator="out"/>
<feColorMatrix type="matrix" values="0 0 0 0 0 0 0 0 0 0 0 0 0 0 0 0 0 0 0.25 0"/>
<feBlend mode="normal" in2="BackgroundImageFix" result="effect1_dropShadow_24_90"/>
<feBlend mode="normal" in="SourceGraphic" in2="effect1_dropShadow_24_90" result="shape"/>
</filter>
<filter id="filter1_d_24_90" x="23.1055" y="6.6084" width="65.4297" height="184.771" filterUnits="userSpaceOnUse" color-interpolation-filters="sRGB">
<feFlood flood-opacity="0" result="BackgroundImageFix"/>
<feColorMatrix in="SourceAlpha" type="matrix" values="0 0 0 0 0 0 0 0 0 0 0 0 0 0 0 0 0 0 127 0" result="hardAlpha"/>
<feOffset dy="18"/>
<feGaussianBlur stdDeviation="2"/>
<feComposite in2="hardAlpha" operator="out"/>
<feColorMatrix type="matrix" values="0 0 0 0 0 0 0 0 0 0 0 0 0 0 0 0 0 0 0.25 0"/>
<feBlend mode="normal" in2="BackgroundImageFix" result="effect1_dropShadow_24_90"/>
<feBlend mode="normal" in="SourceGraphic" in2="effect1_dropShadow_24_90" result="shape"/>
</filter>
<filter id="filter2_d_24_90" x="61.583" y="42.1646" width="63.9248" height="186.468" filterUnits="userSpaceOnUse" color-interpolation-filters="sRGB">
<feFlood flood-opacity="0" result="BackgroundImageFix"/>
<feColorMatrix in="SourceAlpha" type="matrix" values="0 0 0 0 0 0 0 0 0 0 0 0 0 0 0 0 0 0 127 0" result="hardAlpha"/>
<feOffset dy="18"/>
<feGaussianBlur stdDeviation="2"/>
<feComposite in2="hardAlpha" operator="out"/>
<feColorMatrix type="matrix" values="0 0 0 0 0 0 0 0 0 0 0 0 0 0 0 0 0 0 0.25 0"/>
<feBlend mode="normal" in2="BackgroundImageFix" result="effect1_dropShadow_24_90"/>
<feBlend mode="normal" in="SourceGraphic" in2="effect1_dropShadow_24_90" result="shape"/>
</filter>
</defs>
</svg>
