<svg width="2313" height="719" viewBox="0 0 2313 719" fill="none" xmlns="http://www.w3.org/2000/svg">
<rect x="5" y="5" width="2302.4" height="709" fill="#DEEEF5" stroke="black" stroke-width="10"/>
<path d="M1395 556.5C1246.79 601.645 1141 668.214 1121.5 707.5H2129L2146 395.378C2046.44 384.89 2001.79 435.329 1807.29 510.738C1612.79 586.147 1580.26 500.068 1395 556.5Z" fill="#C5E7F5" stroke="black" stroke-width="10" stroke-linecap="round"/>
<path d="M568.5 661.259C510.5 687.259 476.667 696.759 467 698.259H868C833.667 685.925 760.2 658.959 741 649.759C717 638.259 641 628.759 568.5 661.259Z" fill="#C5E7F5" stroke="black" stroke-width="10" stroke-linecap="round"/>
<path d="M1401.16 599C1395.49 599.167 1384.56 603.6 1386.16 620" stroke="black" stroke-width="13" stroke-linecap="round"/>
<path d="M1409.16 615C1403.49 615.167 1392.56 619.6 1394.16 636" stroke="black" stroke-width="13" stroke-linecap="round"/>
<path d="M1368 615C1373.67 615.167 1384.6 619.6 1383 636" stroke="black" stroke-width="13" stroke-linecap="round"/>
<path d="M580.158 650C574.492 650.167 563.558 654.6 565.158 671" stroke="black" stroke-width="13" stroke-linecap="round"/>
<path d="M588.158 666C582.492 666.167 571.558 670.6 573.158 687" stroke="black" stroke-width="13" stroke-linecap="round"/>
<path d="M547 666C552.667 666.167 563.6 670.6 562 687" stroke="black" stroke-width="13" stroke-linecap="round"/>
<path d="M764.158 631C758.492 631.167 747.558 635.6 749.158 652" stroke="black" stroke-width="13" stroke-linecap="round"/>
<path d="M772.158 647C766.492 647.167 755.558 651.6 757.158 668" stroke="black" stroke-width="13" stroke-linecap="round"/>
<path d="M731 647C736.667 647.167 747.6 651.6 746 668" stroke="black" stroke-width="13" stroke-linecap="round"/>
<path d="M1744.16 652C1738.49 652.167 1727.56 656.6 1729.16 673" stroke="black" stroke-width="13" stroke-linecap="round"/>
<path d="M1752.16 669C1746.49 669.167 1735.56 673.6 1737.16 690" stroke="black" stroke-width="13" stroke-linecap="round"/>
<path d="M1711 669C1716.67 669.167 1727.6 673.6 1726 690" stroke="black" stroke-width="13" stroke-linecap="round"/>
<path d="M2010.16 538C2004.49 538.167 1993.56 542.6 1995.16 559" stroke="black" stroke-width="13" stroke-linecap="round"/>
<path d="M2018.16 555C2012.49 555.167 2001.56 559.6 2003.16 576" stroke="black" stroke-width="13" stroke-linecap="round"/>
<path d="M1977 555C1982.67 555.167 1993.6 559.6 1992 576" stroke="black" stroke-width="13" stroke-linecap="round"/>
<path d="M2018.16 402C2012.49 402.167 2001.56 406.6 2003.16 423" stroke="black" stroke-width="13" stroke-linecap="round"/>
<path d="M2026.16 419C2020.49 419.167 2009.56 423.6 2011.16 440" stroke="black" stroke-width="13" stroke-linecap="round"/>
<path d="M1985 419C1990.67 419.167 2001.6 423.6 2000 440" stroke="black" stroke-width="13" stroke-linecap="round"/>
</svg>
