<svg width="2313" height="719" viewBox="0 0 2313 719" fill="none" xmlns="http://www.w3.org/2000/svg">
<rect x="5" y="5" width="2302.4" height="709" fill="#DEEEF5" stroke="black" stroke-width="10"/>
<path d="M1395 556.5C1246.79 601.645 1141 668.214 1121.5 707.5H2129L2146 395.378C2046.44 384.89 2001.79 435.329 1807.29 510.738C1612.79 586.147 1580.26 500.068 1395 556.5Z" fill="#C5E7F5" stroke="black" stroke-width="10" stroke-linecap="round"/>
<path d="M568.5 661.259C510.5 687.259 476.667 696.759 467 698.259H868C833.667 685.925 760.2 658.959 741 649.759C717 638.259 641 628.759 568.5 661.259Z" fill="#C5E7F5" stroke="black" stroke-width="10" stroke-linecap="round"/>
<g filter="url(#filter0_d_24_127)">
<g filter="url(#filter1_d_24_127)">
<path d="M1526.99 608.585C1527.39 612.185 1529.82 615.751 1530.99 617.085C1535.32 618.751 1544.89 620.685 1548.49 615.085C1552.99 608.085 1539.99 603.085 1555.99 590.085C1571.99 577.085 1575.99 571.585 1578.99 565.085C1581.99 558.585 1580.49 541.085 1580.49 533.585C1580.49 526.085 1581.99 532.585 1594.49 516.085C1606.99 499.585 1597.49 485.085 1593.99 478.085C1590.49 471.085 1581.99 469.585 1580.49 464.585C1578.99 459.585 1576.49 437.085 1568.99 437.085C1561.49 437.085 1560.49 441.585 1558.99 445.585C1557.49 449.585 1559.49 470.085 1573.99 476.085C1588.49 482.085 1585.99 493.585 1586.49 500.085C1586.99 506.585 1581.99 511.085 1578.23 511.585C1574.47 512.085 1577.99 501.585 1578.49 495.085C1578.99 488.585 1570.99 484.585 1566.49 491.085C1561.99 497.585 1562.49 512.585 1561.99 520.585C1561.49 528.585 1568.49 546.085 1568.99 553.085C1569.49 560.085 1562.99 566.085 1562.49 567.085C1561.99 568.085 1555.49 571.585 1561.49 557.585C1567.49 543.585 1560.49 536.085 1558.99 534.585C1557.49 533.085 1548.99 530.085 1545.49 538.585C1541.99 547.085 1548.99 553.585 1549.49 555.085C1549.99 556.585 1548.99 563.085 1544.99 563.585C1540.99 564.085 1544.49 556.085 1542.49 552.585C1540.49 549.085 1537.49 542.085 1537.49 535.085C1537.49 528.085 1542.99 529.585 1551.99 521.085C1560.99 512.585 1559.49 502.085 1558.99 498.585C1558.49 495.085 1552.49 490.085 1555.99 481.585C1559.49 473.085 1555.99 466.585 1552.99 466.085C1549.99 465.585 1546.99 464.085 1542.99 471.085C1538.99 478.085 1541.99 490.585 1542.99 492.085C1543.99 493.585 1545.49 498.585 1545.49 502.585C1545.49 506.585 1542.49 512.585 1538.49 511.585C1534.49 510.585 1537.49 503.085 1534.99 492.085C1532.49 481.085 1538.99 474.085 1539.99 465.585C1540.99 457.085 1533.49 454.585 1534.99 449.085C1536.49 443.585 1532.99 431.585 1530.49 427.585C1527.99 423.585 1519.49 424.085 1514.49 430.085C1509.49 436.085 1513.99 445.585 1514.99 448.085C1515.99 450.585 1525.49 461.085 1526.99 465.085C1528.49 469.085 1525.49 476.585 1522.99 477.085C1520.49 477.585 1517.49 465.085 1516.99 461.085C1516.49 457.085 1508.49 444.585 1502.49 452.585C1496.49 460.585 1500.99 468.085 1504.49 474.085C1507.99 480.085 1518.49 488.085 1522.99 499.585C1527.49 511.085 1524.49 522.585 1522.99 524.085C1521.49 525.585 1512.49 521.085 1513.99 504.585C1515.49 488.085 1505.99 483.585 1502.49 483.585C1498.99 483.585 1495.49 485.085 1493.49 491.085C1491.49 497.085 1495.49 520.585 1507.49 530.085C1519.49 539.585 1526.99 557.085 1529.99 561.585C1532.99 566.085 1531.49 588.085 1529.99 590.085C1528.49 592.085 1526.99 586.585 1524.49 581.585C1521.99 576.585 1520.49 573.085 1519.99 563.085C1519.59 555.085 1515.82 553.751 1513.99 554.085C1511.32 553.751 1505.69 554.785 1504.49 561.585C1502.99 570.085 1512.49 584.085 1514.99 589.085C1517.49 594.085 1526.49 604.085 1526.99 608.585Z" fill="#1576B4"/>
<path d="M1526.99 608.585C1527.39 612.185 1529.82 615.751 1530.99 617.085C1535.32 618.751 1544.89 620.685 1548.49 615.085C1552.99 608.085 1539.99 603.085 1555.99 590.085C1571.99 577.085 1575.99 571.585 1578.99 565.085C1581.99 558.585 1580.49 541.085 1580.49 533.585C1580.49 526.085 1581.99 532.585 1594.49 516.085C1606.99 499.585 1597.49 485.085 1593.99 478.085C1590.49 471.085 1581.99 469.585 1580.49 464.585C1578.99 459.585 1576.49 437.085 1568.99 437.085C1561.49 437.085 1560.49 441.585 1558.99 445.585C1557.49 449.585 1559.49 470.085 1573.99 476.085C1588.49 482.085 1585.99 493.585 1586.49 500.085C1586.99 506.585 1581.99 511.085 1578.23 511.585C1574.47 512.085 1577.99 501.585 1578.49 495.085C1578.99 488.585 1570.99 484.585 1566.49 491.085C1561.99 497.585 1562.49 512.585 1561.99 520.585C1561.49 528.585 1568.49 546.085 1568.99 553.085C1569.49 560.085 1562.99 566.085 1562.49 567.085C1561.99 568.085 1555.49 571.585 1561.49 557.585C1567.49 543.585 1560.49 536.085 1558.99 534.585C1557.49 533.085 1548.99 530.085 1545.49 538.585C1541.99 547.085 1548.99 553.585 1549.49 555.085C1549.99 556.585 1548.99 563.085 1544.99 563.585C1540.99 564.085 1544.49 556.085 1542.49 552.585C1540.49 549.085 1537.49 542.085 1537.49 535.085C1537.49 528.085 1542.99 529.585 1551.99 521.085C1560.99 512.585 1559.49 502.085 1558.99 498.585C1558.49 495.085 1552.49 490.085 1555.99 481.585C1559.49 473.085 1555.99 466.585 1552.99 466.085C1549.99 465.585 1546.99 464.085 1542.99 471.085C1538.99 478.085 1541.99 490.585 1542.99 492.085C1543.99 493.585 1545.49 498.585 1545.49 502.585C1545.49 506.585 1542.49 512.585 1538.49 511.585C1534.49 510.585 1537.49 503.085 1534.99 492.085C1532.49 481.085 1538.99 474.085 1539.99 465.585C1540.99 457.085 1533.49 454.585 1534.99 449.085C1536.49 443.585 1532.99 431.585 1530.49 427.585C1527.99 423.585 1519.49 424.085 1514.49 430.085C1509.49 436.085 1513.99 445.585 1514.99 448.085C1515.99 450.585 1525.49 461.085 1526.99 465.085C1528.49 469.085 1525.49 476.585 1522.99 477.085C1520.49 477.585 1517.49 465.085 1516.99 461.085C1516.49 457.085 1508.49 444.585 1502.49 452.585C1496.49 460.585 1500.99 468.085 1504.49 474.085C1507.99 480.085 1518.49 488.085 1522.99 499.585C1527.49 511.085 1524.49 522.585 1522.99 524.085C1521.49 525.585 1512.49 521.085 1513.99 504.585C1515.49 488.085 1505.99 483.585 1502.49 483.585C1498.99 483.585 1495.49 485.085 1493.49 491.085C1491.49 497.085 1495.49 520.585 1507.49 530.085C1519.49 539.585 1526.99 557.085 1529.99 561.585C1532.99 566.085 1531.49 588.085 1529.99 590.085C1528.49 592.085 1526.99 586.585 1524.49 581.585C1521.99 576.585 1520.49 573.085 1519.99 563.085C1519.59 555.085 1515.82 553.751 1513.99 554.085C1511.32 553.751 1505.69 554.785 1504.49 561.585C1502.99 570.085 1512.49 584.085 1514.99 589.085C1517.49 594.085 1526.49 604.085 1526.99 608.585Z" stroke="white" stroke-width="3" stroke-linecap="round"/>
</g>
<path d="M1529.5 436C1530.33 437.167 1531.9 440.6 1531.5 445C1531 450.5 1530 452 1533.5 456" stroke="white" stroke-width="3" stroke-linecap="round"/>
<path d="M1529 531C1531.5 525 1529.83 521.487 1541.5 517C1554.5 512 1550 500.5 1549 499C1548 497.5 1545 490 1547 481.5" stroke="white" stroke-width="3" stroke-linecap="round"/>
<path d="M1562 450C1562.83 454.333 1564.9 463.5 1566.5 465.5C1568.5 468 1569 469.5 1577.5 475.5" stroke="white" stroke-width="3" stroke-linecap="round"/>
<path d="M1506 492.5C1504.83 490.833 1502.1 487.8 1500.5 489C1498.5 490.5 1495.5 493 1498 503.5" stroke="white" stroke-width="3" stroke-linecap="round"/>
<path d="M1516 470C1516.17 474.333 1517.6 482.7 1522 481.5C1526.4 480.3 1527.83 476 1528 474" stroke="white" stroke-width="3" stroke-linecap="round"/>
<path d="M1553.88 562C1552.97 566.24 1552.28 574.7 1556.84 574.628C1561.4 574.556 1563.86 570.745 1564.51 568.848" stroke="white" stroke-width="3" stroke-linecap="round"/>
<circle cx="1514" cy="560" r="2" fill="white"/>
<circle cx="1549" cy="544" r="2" fill="white"/>
<circle cx="1509" cy="498" r="2" fill="white"/>
<circle cx="1552" cy="539" r="1" fill="white"/>
<circle cx="1570" cy="498" r="2" fill="white"/>
<circle cx="1573" cy="493" r="1" fill="white"/>
<circle cx="1567.12" cy="442.646" r="2" transform="rotate(-155.656 1567.12 442.646)" fill="white"/>
<circle cx="1562.32" cy="445.965" r="1" transform="rotate(-155.656 1562.32 445.965)" fill="white"/>
<circle cx="1551" cy="548" r="1" fill="white"/>
</g>
<g filter="url(#filter2_d_24_127)">
<g filter="url(#filter3_d_24_127)">
<path d="M1067.58 241.214C1042.22 243.849 1024.63 270.854 1019 284.028C1019.96 287.184 1026.66 296.707 1045.76 309.551C1069.64 325.606 1085.28 324.783 1097.63 307.081C1109.98 289.379 1083.22 279.911 1085.28 279.088C1087.34 278.264 1093.51 269.619 1096.39 262.621C1099.28 255.623 1099.28 237.921 1067.58 241.214Z" fill="#1576B4"/>
<path d="M1067.58 241.214C1042.22 243.849 1024.63 270.854 1019 284.028C1019.96 287.184 1026.66 296.707 1045.76 309.551C1069.64 325.606 1085.28 324.783 1097.63 307.081C1109.98 289.379 1083.22 279.911 1085.28 279.088C1087.34 278.264 1093.51 269.619 1096.39 262.621C1099.28 255.623 1099.28 237.921 1067.58 241.214Z" stroke="white" stroke-width="4.11667" stroke-linecap="round"/>
</g>
<path d="M1038.76 302.149C1042.88 300.365 1051.19 294.245 1051.52 284.035M1051.52 284.035C1053.99 281.702 1058.85 275.802 1061.81 277.449C1065.52 279.507 1071.28 285.27 1066.75 289.387C1062.22 293.504 1056.87 293.092 1055.64 291.034C1054.65 289.387 1052.48 285.682 1051.52 284.035Z" stroke="white" stroke-width="4.11667" stroke-linecap="round"/>
<circle cx="1038.35" cy="278.272" r="2.47" fill="white" stroke="white" stroke-width="0.823335"/>
</g>
<g filter="url(#filter4_d_24_127)">
<path d="M1153.26 161.118C1161.16 158.813 1166.7 169.489 1168.49 175.115L1169.31 200.227C1161.49 217.928 1151.2 214.223 1145.44 210.107C1140.82 206.813 1146.81 199.403 1150.38 196.11C1145.44 195.287 1143.38 193.228 1142.14 186.23C1141.15 180.631 1145.57 177.585 1147.91 176.762C1143.38 169.763 1143.38 164 1153.26 161.118Z" fill="#1576B4" stroke="white" stroke-width="4.11667" stroke-linecap="round"/>
<path d="M1214.18 152.062C1224.48 154.806 1243.82 165.811 1238.88 187.877C1232.71 215.458 1223.65 220.398 1194.42 218.752C1165.19 217.105 1165.61 183.348 1170.13 173.057C1174.66 162.765 1180.01 155.355 1194.42 153.708C1193.05 150.552 1190.22 143.664 1189.9 141.358C1189.48 138.477 1196.07 129.832 1204.72 136.418C1211.63 141.688 1213.91 149.043 1214.18 152.062Z" fill="#1576B4"/>
<path d="M1214.18 152.062C1224.48 154.806 1243.82 165.811 1238.88 187.877C1232.71 215.458 1223.65 220.398 1194.42 218.752C1165.19 217.105 1165.61 183.348 1170.13 173.057C1174.66 162.765 1180.01 155.355 1194.42 153.708M1214.18 152.062C1212.4 152.062 1205.95 152.391 1194.42 153.708M1214.18 152.062C1213.91 149.043 1211.63 141.688 1204.72 136.418C1196.07 129.832 1189.48 138.477 1189.9 141.358C1190.22 143.664 1193.05 150.552 1194.42 153.708" stroke="white" stroke-width="4.11667" stroke-linecap="round"/>
<path d="M1207.19 228.631C1209.49 225.997 1209.79 220.947 1209.66 218.751H1196.89C1194.97 221.633 1191.71 228.22 1194.01 231.513C1196.89 235.63 1204.3 231.925 1207.19 228.631Z" fill="#1576B4" stroke="white" stroke-width="4.11667" stroke-linecap="round"/>
<path d="M1208.28 182.988C1208.18 184.001 1208.14 185.292 1208.21 186.693M1214.04 197.808C1211.38 196.869 1209.85 194.404 1209.03 191.633M1208.21 186.693C1204.53 184.772 1196.5 182.988 1193.87 191.222C1191.24 199.455 1202.88 194.927 1209.03 191.633M1208.21 186.693C1208.3 188.281 1208.55 190.009 1209.03 191.633" stroke="white" stroke-width="4.11667" stroke-linecap="round"/>
<circle cx="1225.16" cy="180.93" r="2.88167" fill="white" stroke="white" stroke-width="0.823335"/>
</g>
<g filter="url(#filter5_d_24_127)">
<path d="M1332.29 200.316L1295.43 233.744L1292 236.316L1310.86 258.601C1310.86 278.316 1319 278.744 1321.57 276.173C1323.63 274.116 1320.71 266.744 1319 263.316C1332.29 271.458 1359.46 287.401 1361.86 286.03C1364.26 284.659 1354.86 270.316 1349.86 263.316L1367 243.173C1375.57 258.482 1388.57 262.98 1394 263.316C1376.17 247.544 1386.57 219.887 1394 208.03C1375.14 210.087 1368.14 226.03 1367 233.744C1364.29 232.173 1357.66 227.058 1352.86 219.173C1346.86 209.316 1352.43 208.03 1356.29 200.316C1360.14 192.601 1364 184.887 1358.86 184.03C1354.74 183.344 1339.43 194.601 1332.29 200.316Z" fill="#1776B1" stroke="white" stroke-width="5" stroke-linecap="round"/>
<circle cx="1316" cy="230.744" r="2.92857" fill="white" stroke="white"/>
<path d="M1314.71 254.316C1320.29 251.458 1331.17 243.687 1330.14 235.458" stroke="white" stroke-width="5" stroke-linecap="round"/>
</g>
<g filter="url(#filter6_d_24_127)">
<path d="M661.931 657.853C666.969 658.006 670.391 661.352 671.472 663.005C675.098 664.341 673.953 662.242 674.717 660.525C675.48 658.807 672.999 658.807 675.671 653.082C678.342 647.357 677.961 643.35 677.006 640.106C676.052 636.862 670.709 636.862 669.182 633.809C667.656 630.755 671.282 625.412 670.137 621.786C668.992 618.16 662.122 615.871 660.404 611.481C658.687 607.092 664.03 602.703 662.694 598.887C661.358 595.07 655.252 594.879 658.878 587.437C661.778 581.483 658.432 579.231 656.397 578.85C652.135 578.722 644.566 577.17 648.382 571.98C653.153 565.492 652.199 562.82 651.054 560.912C649.909 559.003 644.184 559.576 648.382 551.943C652.58 544.31 651.626 540.684 650.1 538.012C648.573 535.341 647.619 533.623 650.672 531.524C653.725 529.425 656.779 526.944 656.969 523.891C657.16 520.838 652.199 518.166 655.061 515.304C657.924 512.441 657.733 505.762 651.626 504.045C645.52 502.327 644.947 508.815 640.94 512.441C636.932 516.067 630.253 514.54 626.437 518.929C622.62 523.318 630.062 526.181 631.78 532.478C633.497 538.776 627.582 539.921 626.818 546.409C626.055 552.897 635.787 552.134 631.207 557.286C626.628 562.438 623.193 567.4 623.002 573.506C622.811 579.613 637.886 580.567 635.215 583.43C632.543 586.292 631.78 593.925 635.787 596.215C639.795 598.505 638.65 601.558 637.505 607.092C636.36 612.626 639.986 614.916 643.993 614.916C648 614.916 651.435 618.161 648.764 621.786C646.092 625.412 644.947 634.19 651.435 635.144C657.924 636.098 660.214 642.587 658.687 645.831C657.16 649.075 655.634 657.662 661.931 657.853Z" fill="#1576B4"/>
<path d="M661.931 657.853C666.969 658.006 670.391 661.352 671.472 663.005C675.098 664.341 673.953 662.242 674.717 660.525C675.48 658.807 672.999 658.807 675.671 653.082C678.342 647.357 677.961 643.35 677.006 640.106C676.052 636.862 670.709 636.862 669.182 633.809C667.656 630.755 671.282 625.412 670.137 621.786C668.992 618.16 662.122 615.871 660.404 611.481C658.687 607.092 664.03 602.703 662.694 598.887C661.358 595.07 655.252 594.879 658.878 587.437C661.778 581.483 658.432 579.231 656.397 578.85C652.135 578.722 644.566 577.17 648.382 571.98C653.153 565.492 652.199 562.82 651.054 560.912C649.909 559.003 644.184 559.576 648.382 551.943C652.58 544.31 651.626 540.684 650.1 538.012C648.573 535.341 647.619 533.623 650.672 531.524C653.725 529.425 656.779 526.944 656.969 523.891C657.16 520.838 652.199 518.166 655.061 515.304C657.924 512.441 657.733 505.762 651.626 504.045C645.52 502.327 644.947 508.815 640.94 512.441C636.932 516.067 630.253 514.54 626.437 518.929C622.62 523.318 630.062 526.181 631.78 532.478C633.497 538.776 627.582 539.921 626.818 546.409C626.055 552.897 635.787 552.134 631.207 557.286C626.628 562.438 623.193 567.4 623.002 573.506C622.811 579.613 637.886 580.567 635.215 583.43C632.543 586.292 631.78 593.925 635.787 596.215C639.795 598.505 638.65 601.558 637.505 607.092C636.36 612.626 639.986 614.916 643.993 614.916C648 614.916 651.435 618.161 648.764 621.786C646.092 625.412 644.947 634.19 651.435 635.144C657.924 636.098 660.214 642.587 658.687 645.831C657.16 649.075 655.634 657.662 661.931 657.853Z" stroke="white" stroke-width="4" stroke-linecap="round"/>
</g>
<g filter="url(#filter7_d_24_127)">
<path d="M690.565 611.279C685.863 613.095 683.746 617.387 683.274 619.306C680.298 621.769 680.681 619.409 679.391 618.042C678.101 616.676 680.441 615.852 676.021 611.339C671.601 606.825 670.631 602.918 670.454 599.541C670.277 596.164 675.318 594.391 675.744 591.004C676.171 587.617 670.978 583.78 670.854 579.98C670.731 576.18 676.451 571.739 676.615 567.029C676.778 562.319 670.281 559.952 670.275 555.908C670.268 551.865 675.965 549.658 670.075 543.841C665.363 539.187 667.771 535.952 669.565 534.917C673.543 533.382 680.168 529.406 674.845 525.776C668.192 521.239 668.205 518.402 668.652 516.222C669.099 514.042 674.689 512.682 668.195 506.875C661.702 501.068 661.398 497.331 661.952 494.304C662.505 491.277 662.835 489.34 659.258 488.374C655.681 487.407 651.978 486.08 650.785 483.263C649.591 480.446 653.385 476.279 649.735 474.529C646.084 472.779 644.048 466.415 649.238 462.769C654.428 459.122 657.122 465.052 662.106 467.142C667.089 469.233 672.883 465.576 677.94 468.449C682.997 471.323 676.926 476.493 677.396 483.004C677.866 489.514 683.827 488.631 686.7 494.498C689.573 500.365 680.139 502.875 686.17 506.215C692.2 509.556 697.087 513.096 699.294 518.793C701.5 524.49 687.596 530.394 691.066 532.207C694.537 534.021 697.79 540.968 694.77 544.458C691.749 547.948 693.843 550.448 696.76 555.289C699.676 560.129 697.016 563.492 693.236 564.823C689.456 566.153 687.292 570.353 691.016 572.886C694.739 575.42 698.733 583.32 692.929 586.374C687.125 589.427 687.118 596.308 689.635 598.861C692.152 601.415 696.442 609.009 690.565 611.279Z" fill="#1776B1"/>
<path d="M690.565 611.279C685.863 613.095 683.746 617.387 683.274 619.306C680.298 621.769 680.681 619.409 679.391 618.042C678.101 616.676 680.441 615.852 676.021 611.339C671.601 606.825 670.631 602.918 670.454 599.541C670.277 596.164 675.318 594.391 675.744 591.004C676.171 587.617 670.978 583.78 670.854 579.98C670.731 576.18 676.451 571.739 676.615 567.029C676.778 562.319 670.281 559.952 670.275 555.908C670.268 551.865 675.965 549.658 670.075 543.841C665.363 539.187 667.771 535.952 669.565 534.917C673.543 533.382 680.168 529.406 674.845 525.776C668.192 521.239 668.205 518.402 668.652 516.222C669.099 514.042 674.689 512.682 668.195 506.875C661.702 501.068 661.398 497.331 661.952 494.304C662.505 491.277 662.835 489.34 659.258 488.374C655.681 487.407 651.978 486.08 650.785 483.263C649.591 480.446 653.385 476.279 649.735 474.529C646.084 472.779 644.048 466.415 649.238 462.769C654.428 459.122 657.122 465.052 662.106 467.142C667.089 469.233 672.883 465.576 677.94 468.449C682.997 471.323 676.926 476.493 677.396 483.004C677.866 489.514 683.827 488.631 686.7 494.498C689.573 500.365 680.139 502.875 686.17 506.215C692.2 509.556 697.087 513.096 699.294 518.793C701.5 524.49 687.596 530.394 691.066 532.207C694.537 534.021 697.79 540.968 694.77 544.458C691.749 547.948 693.843 550.448 696.76 555.289C699.676 560.129 697.016 563.492 693.236 564.823C689.456 566.153 687.292 570.353 691.016 572.886C694.739 575.42 698.733 583.32 692.929 586.374C687.125 589.427 687.118 596.308 689.635 598.861C692.152 601.415 696.442 609.009 690.565 611.279Z" stroke="white" stroke-width="4" stroke-linecap="round"/>
</g>
<g filter="url(#filter8_d_24_127)">
<path d="M700.882 651.618C695.854 651.967 692.564 655.444 691.548 657.138C687.977 658.614 689.039 656.472 688.21 654.786C687.38 653.099 689.859 653.003 686.967 647.386C684.074 641.769 684.3 637.75 685.127 634.471C685.954 631.193 691.293 630.985 692.7 627.874C694.106 624.764 690.275 619.566 691.278 615.898C692.281 612.231 699.057 609.675 700.602 605.223C702.148 600.77 696.638 596.592 697.824 592.726C699.01 588.861 705.104 588.432 701.192 581.137C698.062 575.3 701.317 572.92 703.336 572.459C707.59 572.166 715.093 570.321 711.078 565.283C706.058 558.985 706.908 556.279 707.977 554.327C709.047 552.376 714.79 552.725 710.298 545.261C705.806 537.797 706.618 534.137 708.039 531.408C709.461 528.679 710.347 526.926 707.215 524.947C704.082 522.968 700.935 520.608 700.625 517.565C700.316 514.521 705.169 511.658 702.198 508.909C699.226 506.161 699.157 499.479 705.192 497.525C711.227 495.572 712.051 502.032 716.197 505.5C720.342 508.967 726.957 507.181 730.941 511.418C734.926 515.655 727.601 518.805 726.13 525.165C724.659 531.524 730.614 532.438 731.63 538.892C732.645 545.345 722.89 544.961 727.667 549.932C732.444 554.902 736.07 559.726 736.498 565.82C736.927 571.915 721.9 573.455 724.681 576.211C727.462 578.968 728.522 586.565 724.606 589.01C720.691 591.454 721.954 594.46 723.314 599.945C724.673 605.431 721.139 607.86 717.135 608.016C713.13 608.172 709.824 611.547 712.635 615.066C715.446 618.585 716.932 627.312 710.485 628.518C704.039 629.724 702.004 636.297 703.655 639.479C705.307 642.661 707.167 651.183 700.882 651.618Z" fill="#1776B1"/>
<path d="M700.882 651.618C695.854 651.967 692.564 655.444 691.548 657.138C687.977 658.614 689.039 656.472 688.21 654.786C687.38 653.099 689.859 653.003 686.967 647.386C684.074 641.769 684.3 637.75 685.127 634.471C685.954 631.193 691.293 630.985 692.7 627.874C694.106 624.764 690.275 619.566 691.278 615.898C692.281 612.231 699.057 609.675 700.602 605.223C702.148 600.77 696.638 596.592 697.824 592.726C699.01 588.861 705.104 588.432 701.192 581.137C698.062 575.3 701.317 572.92 703.336 572.459C707.59 572.166 715.093 570.321 711.078 565.283C706.058 558.985 706.908 556.279 707.977 554.327C709.047 552.376 714.79 552.725 710.298 545.261C705.806 537.797 706.618 534.137 708.039 531.408C709.461 528.679 710.347 526.926 707.215 524.947C704.082 522.968 700.935 520.608 700.625 517.565C700.316 514.521 705.169 511.658 702.198 508.909C699.226 506.161 699.157 499.479 705.192 497.525C711.227 495.572 712.051 502.032 716.197 505.5C720.342 508.967 726.957 507.181 730.941 511.418C734.926 515.655 727.601 518.805 726.13 525.165C724.659 531.524 730.614 532.438 731.63 538.892C732.645 545.345 722.89 544.961 727.667 549.932C732.444 554.902 736.07 559.726 736.498 565.82C736.927 571.915 721.9 573.455 724.681 576.211C727.462 578.968 728.522 586.565 724.606 589.01C720.691 591.454 721.954 594.46 723.314 599.945C724.673 605.431 721.139 607.86 717.135 608.016C713.13 608.172 709.824 611.547 712.635 615.066C715.446 618.585 716.932 627.312 710.485 628.518C704.039 629.724 702.004 636.297 703.655 639.479C705.307 642.661 707.167 651.183 700.882 651.618Z" stroke="white" stroke-width="4" stroke-linecap="round"/>
</g>
<path d="M647.426 513.302C641.701 520.235 634.259 541.812 641.128 572.65C647.998 603.488 663.074 638.422 670.516 652.035" stroke="white" stroke-width="4" stroke-linecap="round"/>
<path d="M657.78 471.247C665.468 475.909 679.598 493.833 683.262 525.214C686.926 556.595 684.19 594.545 681.644 609.849" stroke="white" stroke-width="4" stroke-linecap="round"/>
<path d="M710.965 510.463C716.853 517.259 724.804 538.654 718.665 569.646C712.527 600.637 698.282 635.919 691.164 649.704" stroke="white" stroke-width="4" stroke-linecap="round"/>
<g filter="url(#filter9_d_24_127)">
<g filter="url(#filter10_d_24_127)">
<path fill-rule="evenodd" clip-rule="evenodd" d="M1741.86 126.873C1749.03 122.45 1761.72 120.237 1772.86 121.234C1778.37 121.727 1782.92 122.963 1785.9 124.656C1788.81 126.308 1789.47 127.871 1789.47 129.193C1789.47 134.314 1785.25 140.028 1778.29 144.17C1774.97 146.143 1771.42 147.496 1768.24 148.088C1764.95 148.698 1762.61 148.405 1761.28 147.792C1758.53 146.517 1755.26 147.717 1753.98 150.474C1752.71 153.231 1753.91 156.499 1756.66 157.775C1760.84 159.708 1765.75 159.738 1770.24 158.903C1774.84 158.049 1779.6 156.186 1783.91 153.625C1792.19 148.699 1800.47 140.073 1800.47 129.193C1800.47 122.516 1796.27 117.892 1791.33 115.09C1786.47 112.33 1780.2 110.847 1773.84 110.278C1761.23 109.15 1745.92 111.437 1736.08 117.514C1725.73 123.909 1720.74 134.778 1722.27 146.411C1723.78 157.878 1731.48 169.395 1744.94 178.284C1757.16 186.348 1772.17 184.279 1784.68 179.681C1797.35 175.028 1808.98 167.264 1815.93 161.471C1815.96 161.453 1815.99 161.426 1816.04 161.39C1816.17 161.294 1816.38 161.137 1816.68 160.931C1817.28 160.52 1818.22 159.916 1819.46 159.219C1821.94 157.824 1825.64 156.07 1830.37 154.73C1839.76 152.072 1853.35 150.997 1869.86 157.862C1872.67 159.028 1875.89 157.7 1877.05 154.895C1878.22 152.09 1876.89 148.871 1874.09 147.705C1855 139.77 1838.84 140.901 1827.38 144.147C1821.68 145.76 1817.18 147.883 1814.07 149.627C1812.52 150.5 1811.3 151.281 1810.46 151.863C1810.03 152.153 1809.7 152.395 1809.46 152.573C1809.34 152.662 1809.25 152.736 1809.17 152.792C1809.16 152.806 1809.14 152.819 1809.12 152.831C1809.11 152.843 1809.1 152.853 1809.08 152.863L1809.05 152.888L1809.04 152.898L1809.03 152.903C1809.03 152.905 1809.03 152.906 1812.47 157.193L1809.03 152.906C1809 152.928 1808.97 152.95 1808.95 152.973C1802.72 158.174 1792.14 165.225 1780.89 169.356C1769.45 173.558 1758.79 174.239 1751 169.103C1739.47 161.492 1734.17 152.509 1733.18 144.976C1732.21 137.608 1735.22 130.978 1741.86 126.873ZM1817.53 183.917L1820.97 188.204C1817.53 183.917 1817.53 183.916 1817.53 183.914L1817.54 183.909L1817.55 183.899L1817.58 183.874C1817.61 183.855 1817.64 183.831 1817.67 183.803C1817.75 183.747 1817.84 183.673 1817.96 183.584C1818.2 183.406 1818.53 183.164 1818.96 182.873C1819.8 182.292 1821.02 181.511 1822.57 180.638C1825.68 178.894 1830.18 176.771 1835.88 175.158C1847.34 171.912 1863.5 170.781 1882.59 178.716C1904.48 187.82 1916.81 188.985 1923.91 187.751C1930.38 186.625 1933.07 183.446 1935.63 180.419L1935.78 180.242C1937.74 177.923 1941.21 177.634 1943.53 179.596C1945.85 181.558 1946.14 185.029 1944.17 187.347L1943.98 187.58C1941.06 191.032 1936.21 196.777 1925.79 198.588C1915.64 200.355 1900.96 198.269 1878.36 188.873C1861.85 182.008 1848.26 183.083 1838.87 185.741C1834.14 187.081 1830.44 188.835 1827.96 190.23C1826.72 190.927 1825.78 191.531 1825.18 191.942C1824.88 192.148 1824.67 192.305 1824.54 192.401C1824.48 192.448 1824.43 192.481 1824.41 192.497L1824.4 192.505L1824.4 192.506C1822.04 194.392 1818.59 194.012 1816.69 191.65C1814.78 189.282 1815.16 185.82 1817.53 183.917Z" fill="#1776B1"/>
<path d="M1772.86 121.234L1772.64 123.724L1772.64 123.724L1772.86 121.234ZM1741.86 126.873L1743.18 129L1743.18 129L1741.86 126.873ZM1785.9 124.656L1787.13 122.482L1787.13 122.482L1785.9 124.656ZM1778.29 144.17L1777.01 142.021L1777.01 142.021L1778.29 144.17ZM1768.24 148.088L1767.78 145.63L1767.78 145.63L1768.24 148.088ZM1761.28 147.792L1760.23 150.061L1760.23 150.061L1761.28 147.792ZM1753.98 150.474L1751.71 149.424L1751.71 149.424L1753.98 150.474ZM1756.66 157.775L1757.71 155.506L1757.71 155.506L1756.66 157.775ZM1770.24 158.903L1769.79 156.445L1769.79 156.445L1770.24 158.903ZM1783.91 153.625L1782.63 151.476L1782.63 151.476L1783.91 153.625ZM1791.33 115.09L1790.1 117.264L1790.1 117.264L1791.33 115.09ZM1773.84 110.278L1773.62 112.768L1773.62 112.768L1773.84 110.278ZM1736.08 117.514L1734.77 115.387L1734.77 115.387L1736.08 117.514ZM1722.27 146.411L1724.75 146.085L1724.75 146.085L1722.27 146.411ZM1744.94 178.284L1746.32 176.197L1746.32 176.197L1744.94 178.284ZM1784.68 179.681L1785.55 182.028L1785.55 182.028L1784.68 179.681ZM1815.93 161.471L1814.41 159.489C1814.38 159.509 1814.36 159.53 1814.33 159.551L1815.93 161.471ZM1816.04 161.39L1817.54 163.393L1817.54 163.393L1816.04 161.39ZM1816.68 160.931L1818.1 162.992L1818.1 162.992L1816.68 160.931ZM1819.46 159.219L1818.23 157.039L1818.23 157.039L1819.46 159.219ZM1830.37 154.73L1831.05 157.136L1831.05 157.136L1830.37 154.73ZM1869.86 157.862L1870.82 155.554L1870.82 155.554L1869.86 157.862ZM1877.05 154.895L1879.36 155.855L1879.36 155.855L1877.05 154.895ZM1874.09 147.705L1873.13 150.014L1873.13 150.014L1874.09 147.705ZM1827.38 144.147L1826.69 141.741L1826.69 141.741L1827.38 144.147ZM1814.07 149.627L1815.3 151.807L1815.3 151.807L1814.07 149.627ZM1810.46 151.863L1811.87 153.924L1811.87 153.924L1810.46 151.863ZM1809.46 152.573L1807.97 150.569L1807.97 150.569L1809.46 152.573ZM1809.17 152.792L1810.71 154.768L1810.71 154.768L1809.17 152.792ZM1809.12 152.831L1810.66 154.8L1810.66 154.8L1809.12 152.831ZM1809.08 152.863L1807.53 150.901L1807.53 150.904L1809.08 152.863ZM1809.05 152.888L1807.5 150.929L1807.49 150.934L1809.05 152.888ZM1809.04 152.898L1807.48 150.944L1807.48 150.948L1809.04 152.898ZM1809.03 152.903L1807.47 150.952L1807.47 150.953L1809.03 152.903ZM1810.53 158.76C1811.39 159.836 1812.96 160.007 1814.04 159.142C1815.12 158.277 1815.29 156.703 1814.42 155.627L1810.53 158.76ZM1809.03 152.906L1810.98 151.34C1810.11 150.264 1808.54 150.093 1807.46 150.958L1809.03 152.906ZM1808.95 152.973L1807.35 151.054L1807.35 151.054L1808.95 152.973ZM1780.89 169.356L1781.75 171.702L1781.75 171.702L1780.89 169.356ZM1751 169.103L1752.38 167.016L1752.38 167.016L1751 169.103ZM1733.18 144.976L1730.7 145.302L1730.7 145.302L1733.18 144.976ZM1819.03 189.771C1819.89 190.847 1821.46 191.018 1822.54 190.153C1823.62 189.288 1823.79 187.714 1822.92 186.638L1819.03 189.771ZM1817.53 183.917L1819.48 182.351C1818.61 181.275 1817.04 181.104 1815.96 181.969L1817.53 183.917ZM1817.53 183.914L1815.97 181.963L1815.97 181.965L1817.53 183.914ZM1817.54 183.909L1815.98 181.955L1815.98 181.959L1817.54 183.909ZM1817.55 183.899L1816 181.94L1815.99 181.945L1817.55 183.899ZM1817.58 183.874L1816.03 181.912L1816.03 181.915L1817.58 183.874ZM1817.67 183.803L1816.14 181.827L1816.14 181.827L1817.67 183.803ZM1817.96 183.584L1816.47 181.58L1816.47 181.58L1817.96 183.584ZM1818.96 182.873L1817.54 180.812L1817.54 180.812L1818.96 182.873ZM1822.57 180.638L1823.8 182.818L1823.8 182.818L1822.57 180.638ZM1835.88 175.158L1836.56 177.563L1836.56 177.563L1835.88 175.158ZM1882.59 178.716L1881.63 181.025L1881.63 181.025L1882.59 178.716ZM1923.91 187.751L1924.34 190.214L1924.34 190.214L1923.91 187.751ZM1935.63 180.419L1933.72 178.804L1933.72 178.805L1935.63 180.419ZM1935.78 180.242L1933.87 178.627L1933.87 178.628L1935.78 180.242ZM1943.53 179.596L1941.91 181.505L1941.91 181.505L1943.53 179.596ZM1944.17 187.347L1942.26 185.733L1942.26 185.734L1944.17 187.347ZM1943.98 187.58L1942.07 185.966L1942.07 185.966L1943.98 187.58ZM1925.79 198.588L1925.36 196.125L1925.36 196.125L1925.79 198.588ZM1878.36 188.873L1877.4 191.182L1877.4 191.182L1878.36 188.873ZM1838.87 185.741L1838.19 183.336L1838.19 183.336L1838.87 185.741ZM1827.96 190.23L1826.73 188.05L1826.73 188.05L1827.96 190.23ZM1825.18 191.942L1826.6 194.003L1826.6 194.003L1825.18 191.942ZM1824.54 192.401L1826.04 194.404L1826.04 194.404L1824.54 192.401ZM1824.41 192.497L1822.88 190.521L1822.88 190.524L1824.41 192.497ZM1824.4 192.505L1825.93 194.485L1825.94 194.478L1824.4 192.505ZM1824.4 192.506L1822.88 190.526C1822.87 190.534 1822.85 190.542 1822.84 190.551L1824.4 192.506ZM1816.69 191.65L1814.74 193.216L1814.74 193.216L1816.69 191.65ZM1773.08 118.744C1761.61 117.717 1748.32 119.947 1740.55 124.746L1743.18 129C1749.73 124.952 1761.83 122.757 1772.64 123.724L1773.08 118.744ZM1787.13 122.482C1783.72 120.547 1778.79 119.255 1773.08 118.744L1772.64 123.724C1777.96 124.2 1782.11 125.38 1784.67 126.83L1787.13 122.482ZM1791.97 129.193C1791.97 128.062 1791.67 126.835 1790.83 125.621C1790.02 124.456 1788.79 123.425 1787.13 122.482L1784.67 126.83C1785.91 127.539 1786.47 128.115 1786.73 128.475C1786.94 128.787 1786.97 129.002 1786.97 129.193H1791.97ZM1779.57 146.319C1786.84 141.992 1791.97 135.614 1791.97 129.193H1786.97C1786.97 133.013 1783.67 138.063 1777.01 142.021L1779.57 146.319ZM1768.69 150.546C1772.2 149.894 1776.02 148.426 1779.57 146.319L1777.01 142.021C1773.92 143.861 1770.64 145.098 1767.78 145.63L1768.69 150.546ZM1760.23 150.061C1762.21 150.973 1765.13 151.208 1768.69 150.546L1767.78 145.63C1764.77 146.189 1763.01 145.837 1762.33 145.523L1760.23 150.061ZM1756.25 151.524C1756.95 150.02 1758.73 149.365 1760.23 150.061L1762.33 145.523C1758.32 143.668 1753.57 145.414 1751.71 149.424L1756.25 151.524ZM1757.71 155.506C1756.21 154.81 1755.56 153.027 1756.25 151.524L1751.71 149.424C1749.86 153.434 1751.6 158.188 1755.61 160.044L1757.71 155.506ZM1769.79 156.445C1765.57 157.229 1761.24 157.139 1757.71 155.506L1755.61 160.044C1760.44 162.277 1765.93 162.247 1770.7 161.361L1769.79 156.445ZM1782.63 151.476C1778.55 153.903 1774.06 155.65 1769.79 156.445L1770.7 161.361C1775.62 160.447 1780.66 158.468 1785.19 155.774L1782.63 151.476ZM1797.97 129.193C1797.97 138.759 1790.62 146.724 1782.63 151.476L1785.19 155.774C1793.76 150.674 1802.97 141.387 1802.97 129.193H1797.97ZM1790.1 117.264C1794.58 119.811 1797.97 123.742 1797.97 129.193H1802.97C1802.97 121.289 1797.95 115.973 1792.56 112.916L1790.1 117.264ZM1773.62 112.768C1779.78 113.32 1785.66 114.746 1790.1 117.264L1792.56 112.916C1787.27 109.913 1780.61 108.374 1774.06 107.788L1773.62 112.768ZM1737.4 119.641C1746.63 113.94 1761.34 111.67 1773.62 112.768L1774.06 107.788C1761.12 106.63 1745.22 108.934 1734.77 115.387L1737.4 119.641ZM1724.75 146.085C1723.35 135.421 1727.89 125.516 1737.4 119.641L1734.77 115.387C1723.57 122.303 1718.13 134.135 1719.79 146.737L1724.75 146.085ZM1746.32 176.197C1733.29 167.598 1726.14 156.656 1724.75 146.085L1719.79 146.737C1721.42 159.1 1729.66 171.192 1743.57 180.37L1746.32 176.197ZM1783.82 177.334C1771.55 181.843 1757.53 183.595 1746.32 176.197L1743.57 180.37C1756.8 189.101 1772.79 186.714 1785.55 182.028L1783.82 177.334ZM1814.33 159.551C1807.54 165.209 1796.16 172.803 1783.82 177.334L1785.55 182.028C1798.55 177.252 1810.42 169.319 1817.53 163.392L1814.33 159.551ZM1814.55 159.386C1814.49 159.429 1814.44 159.464 1814.41 159.489L1817.46 163.454C1817.47 163.443 1817.5 163.422 1817.54 163.393L1814.55 159.386ZM1815.27 158.87C1814.94 159.095 1814.7 159.271 1814.55 159.386L1817.54 163.393C1817.64 163.316 1817.83 163.178 1818.1 162.992L1815.27 158.87ZM1818.23 157.039C1816.92 157.776 1815.92 158.42 1815.27 158.87L1818.1 162.992C1818.64 162.62 1819.51 162.056 1820.68 161.4L1818.23 157.039ZM1829.69 152.325C1824.74 153.727 1820.86 155.565 1818.23 157.039L1820.68 161.4C1823.03 160.083 1826.55 158.413 1831.05 157.136L1829.69 152.325ZM1870.82 155.554C1853.72 148.446 1839.55 149.533 1829.69 152.325L1831.05 157.136C1839.97 154.61 1852.97 153.549 1868.9 160.171L1870.82 155.554ZM1874.74 153.935C1874.11 155.465 1872.35 156.19 1870.82 155.554L1868.9 160.171C1872.98 161.867 1877.67 159.935 1879.36 155.855L1874.74 153.935ZM1873.13 150.014C1874.66 150.65 1875.38 152.405 1874.74 153.935L1879.36 155.855C1881.06 151.775 1879.13 147.093 1875.05 145.397L1873.13 150.014ZM1828.06 146.552C1839.05 143.439 1854.62 142.322 1873.13 150.014L1875.05 145.397C1855.37 137.219 1838.63 138.362 1826.69 141.741L1828.06 146.552ZM1815.3 151.807C1818.26 150.142 1822.58 148.103 1828.06 146.552L1826.69 141.741C1820.78 143.417 1816.1 145.624 1812.85 147.447L1815.3 151.807ZM1811.87 153.924C1812.66 153.381 1813.81 152.64 1815.3 151.807L1812.85 147.447C1811.22 148.36 1809.95 149.181 1809.04 149.801L1811.87 153.924ZM1810.96 154.577C1811.17 154.417 1811.48 154.195 1811.87 153.924L1809.04 149.801C1808.59 150.112 1808.23 150.372 1807.97 150.569L1810.96 154.577ZM1810.71 154.768C1810.77 154.721 1810.85 154.657 1810.96 154.577L1807.97 150.569C1807.84 150.668 1807.73 150.751 1807.64 150.816L1810.71 154.768ZM1810.66 154.8C1810.68 154.79 1810.69 154.78 1810.71 154.768L1807.64 150.816C1807.62 150.832 1807.6 150.848 1807.58 150.862L1810.66 154.8ZM1810.63 154.825C1810.64 154.818 1810.65 154.809 1810.66 154.8L1807.58 150.862C1807.57 150.876 1807.55 150.889 1807.53 150.901L1810.63 154.825ZM1810.6 154.847L1810.64 154.822L1807.53 150.904L1807.5 150.929L1810.6 154.847ZM1810.6 154.852L1810.61 154.842L1807.49 150.934L1807.48 150.944L1810.6 154.852ZM1810.6 154.853L1810.6 154.849L1807.48 150.948L1807.47 150.952L1810.6 154.853ZM1814.42 155.627C1812.7 153.484 1811.84 152.413 1811.41 151.878C1811.2 151.609 1811.09 151.481 1811.05 151.422C1811.02 151.384 1811.03 151.394 1811.04 151.417C1811.05 151.425 1811.06 151.445 1811.08 151.471C1811.09 151.488 1811.14 151.552 1811.19 151.639C1811.22 151.683 1811.27 151.77 1811.32 151.885C1811.36 151.98 1811.46 152.222 1811.51 152.551C1811.56 152.929 1811.55 153.502 1811.23 154.093C1810.96 154.602 1810.55 154.891 1810.6 154.852L1807.47 150.953C1807.47 150.953 1807.46 150.958 1807.46 150.963C1807.45 150.969 1807.43 150.984 1807.42 150.995C1807.39 151.022 1807.33 151.067 1807.27 151.127C1807.15 151.251 1806.98 151.443 1806.84 151.712C1806.52 152.303 1806.5 152.877 1806.56 153.254C1806.61 153.584 1806.71 153.826 1806.75 153.922C1806.8 154.037 1806.85 154.124 1806.88 154.169C1806.93 154.257 1806.98 154.323 1806.99 154.343C1807.01 154.371 1807.03 154.394 1807.04 154.406C1807.07 154.447 1807.1 154.49 1807.12 154.52C1807.18 154.596 1807.3 154.737 1807.51 155.004C1807.94 155.543 1808.8 156.616 1810.53 158.76L1814.42 155.627ZM1807.08 154.473L1810.53 158.76L1814.42 155.627L1810.98 151.34L1807.08 154.473ZM1810.55 154.891C1810.57 154.879 1810.58 154.867 1810.59 154.855L1807.46 150.958C1807.42 150.99 1807.38 151.022 1807.35 151.054L1810.55 154.891ZM1781.75 171.702C1793.33 167.449 1804.16 160.228 1810.55 154.891L1807.35 151.054C1801.28 156.12 1790.94 163 1780.03 167.009L1781.75 171.702ZM1749.63 171.19C1758.41 176.989 1770.06 175.996 1781.75 171.702L1780.03 167.009C1768.84 171.12 1759.16 171.488 1752.38 167.016L1749.63 171.19ZM1730.7 145.302C1731.81 153.727 1737.65 163.287 1749.63 171.19L1752.38 167.016C1741.29 159.697 1736.53 151.29 1735.66 144.65L1730.7 145.302ZM1740.55 124.746C1733.06 129.371 1729.6 136.965 1730.7 145.302L1735.66 144.65C1734.81 138.252 1737.38 132.584 1743.18 129L1740.55 124.746ZM1822.92 186.638L1819.48 182.351L1815.58 185.484L1819.03 189.771L1822.92 186.638ZM1815.97 181.965C1816.02 181.926 1815.61 182.216 1815.33 182.724C1815.02 183.314 1815 183.888 1815.06 184.265C1815.11 184.594 1815.21 184.836 1815.25 184.932C1815.3 185.048 1815.35 185.135 1815.38 185.179C1815.43 185.268 1815.48 185.334 1815.49 185.354C1815.51 185.382 1815.53 185.405 1815.54 185.417C1815.57 185.458 1815.6 185.501 1815.62 185.531C1815.68 185.607 1815.8 185.748 1816.01 186.015C1816.44 186.553 1817.3 187.627 1819.03 189.771L1822.92 186.638C1821.2 184.494 1820.34 183.424 1819.91 182.889C1819.7 182.62 1819.59 182.492 1819.55 182.433C1819.52 182.395 1819.53 182.405 1819.54 182.428C1819.55 182.436 1819.56 182.456 1819.58 182.482C1819.59 182.499 1819.64 182.563 1819.69 182.651C1819.72 182.694 1819.77 182.781 1819.82 182.896C1819.86 182.992 1819.96 183.234 1820.01 183.563C1820.06 183.94 1820.05 184.513 1819.73 185.103C1819.46 185.611 1819.05 185.901 1819.1 185.862L1815.97 181.965ZM1815.98 181.959L1815.97 181.963L1819.1 185.864L1819.1 185.86L1815.98 181.959ZM1815.99 181.945L1815.98 181.955L1819.1 185.863L1819.11 185.853L1815.99 181.945ZM1816.03 181.915L1816 181.94L1819.1 185.858L1819.14 185.833L1816.03 181.915ZM1816.14 181.827C1816.1 181.859 1816.06 181.888 1816.03 181.912L1819.13 185.836C1819.15 185.821 1819.18 185.802 1819.21 185.779L1816.14 181.827ZM1816.47 181.58C1816.34 181.679 1816.23 181.761 1816.14 181.827L1819.21 185.779C1819.27 185.732 1819.35 185.668 1819.46 185.588L1816.47 181.58ZM1817.54 180.812C1817.09 181.123 1816.73 181.383 1816.47 181.58L1819.46 185.588C1819.67 185.428 1819.98 185.206 1820.37 184.935L1817.54 180.812ZM1821.35 178.458C1819.72 179.371 1818.45 180.192 1817.54 180.812L1820.37 184.935C1821.16 184.392 1822.31 183.651 1823.8 182.818L1821.35 178.458ZM1835.19 172.752C1829.28 174.428 1824.6 176.635 1821.35 178.458L1823.8 182.818C1826.76 181.153 1831.08 179.114 1836.56 177.563L1835.19 172.752ZM1883.55 176.408C1863.87 168.23 1847.13 169.373 1835.19 172.752L1836.56 177.563C1847.55 174.45 1863.12 173.333 1881.63 181.025L1883.55 176.408ZM1923.48 185.288C1917.08 186.401 1905.28 185.445 1883.55 176.408L1881.63 181.025C1903.68 190.195 1916.55 191.569 1924.34 190.214L1923.48 185.288ZM1933.72 178.805C1932.42 180.34 1931.29 181.666 1929.76 182.778C1928.28 183.857 1926.35 184.788 1923.48 185.288L1924.34 190.214C1927.93 189.588 1930.58 188.367 1932.71 186.818C1934.78 185.302 1936.27 183.524 1937.54 182.033L1933.72 178.805ZM1933.87 178.628L1933.72 178.804L1937.54 182.033L1937.68 181.856L1933.87 178.628ZM1945.14 177.688C1941.77 174.834 1936.72 175.254 1933.87 178.627L1937.68 181.857C1938.75 180.592 1940.65 180.434 1941.91 181.505L1945.14 177.688ZM1946.08 188.962C1948.94 185.589 1948.51 180.542 1945.14 177.688L1941.91 181.505C1943.18 182.575 1943.33 184.468 1942.26 185.733L1946.08 188.962ZM1945.89 189.193L1946.08 188.961L1942.26 185.734L1942.07 185.966L1945.89 189.193ZM1926.22 201.051C1937.53 199.084 1942.87 192.758 1945.89 189.193L1942.07 185.966C1939.25 189.305 1934.88 194.47 1925.36 196.125L1926.22 201.051ZM1877.4 191.182C1900.16 200.644 1915.37 202.939 1926.22 201.051L1925.36 196.125C1915.9 197.771 1901.76 195.894 1879.32 186.565L1877.4 191.182ZM1839.55 188.147C1848.47 185.621 1861.47 184.56 1877.4 191.182L1879.32 186.565C1862.22 179.457 1848.05 180.544 1838.19 183.336L1839.55 188.147ZM1829.18 192.411C1831.53 191.094 1835.05 189.424 1839.55 188.147L1838.19 183.336C1833.24 184.738 1829.36 186.575 1826.73 188.05L1829.18 192.411ZM1826.6 194.003C1827.14 193.631 1828.01 193.067 1829.18 192.411L1826.73 188.05C1825.42 188.787 1824.42 189.431 1823.77 189.881L1826.6 194.003ZM1826.04 194.404C1826.14 194.327 1826.33 194.189 1826.6 194.003L1823.77 189.881C1823.44 190.106 1823.2 190.282 1823.05 190.397L1826.04 194.404ZM1825.94 194.473C1825.95 194.466 1825.98 194.443 1826.04 194.404L1823.05 190.397C1822.97 190.454 1822.91 190.496 1822.88 190.521L1825.94 194.473ZM1825.94 194.478L1825.95 194.469L1822.88 190.524L1822.87 190.532L1825.94 194.478ZM1825.93 194.486L1825.93 194.485L1822.88 190.525L1822.88 190.526L1825.93 194.486ZM1814.74 193.216C1817.5 196.651 1822.52 197.205 1825.96 194.46L1822.84 190.551C1821.55 191.58 1819.67 191.372 1818.64 190.084L1814.74 193.216ZM1815.96 181.969C1812.52 184.737 1811.97 189.772 1814.74 193.216L1818.64 190.084C1817.6 188.792 1817.8 186.904 1819.09 185.866L1815.96 181.969Z" fill="white"/>
</g>
</g>
<path d="M1401.16 599C1395.49 599.167 1384.56 603.6 1386.16 620" stroke="black" stroke-width="13" stroke-linecap="round"/>
<path d="M1409.16 615C1403.49 615.167 1392.56 619.6 1394.16 636" stroke="black" stroke-width="13" stroke-linecap="round"/>
<path d="M1368 615C1373.67 615.167 1384.6 619.6 1383 636" stroke="black" stroke-width="13" stroke-linecap="round"/>
<path d="M580.158 650C574.492 650.167 563.558 654.6 565.158 671" stroke="black" stroke-width="13" stroke-linecap="round"/>
<path d="M588.158 666C582.492 666.167 571.558 670.6 573.158 687" stroke="black" stroke-width="13" stroke-linecap="round"/>
<path d="M547 666C552.667 666.167 563.6 670.6 562 687" stroke="black" stroke-width="13" stroke-linecap="round"/>
<path d="M764.158 631C758.492 631.167 747.558 635.6 749.158 652" stroke="black" stroke-width="13" stroke-linecap="round"/>
<path d="M772.158 647C766.492 647.167 755.558 651.6 757.158 668" stroke="black" stroke-width="13" stroke-linecap="round"/>
<path d="M731 647C736.667 647.167 747.6 651.6 746 668" stroke="black" stroke-width="13" stroke-linecap="round"/>
<path d="M1744.16 652C1738.49 652.167 1727.56 656.6 1729.16 673" stroke="black" stroke-width="13" stroke-linecap="round"/>
<path d="M1752.16 669C1746.49 669.167 1735.56 673.6 1737.16 690" stroke="black" stroke-width="13" stroke-linecap="round"/>
<path d="M1711 669C1716.67 669.167 1727.6 673.6 1726 690" stroke="black" stroke-width="13" stroke-linecap="round"/>
<path d="M2010.16 538C2004.49 538.167 1993.56 542.6 1995.16 559" stroke="black" stroke-width="13" stroke-linecap="round"/>
<path d="M2018.16 555C2012.49 555.167 2001.56 559.6 2003.16 576" stroke="black" stroke-width="13" stroke-linecap="round"/>
<path d="M1977 555C1982.67 555.167 1993.6 559.6 1992 576" stroke="black" stroke-width="13" stroke-linecap="round"/>
<path d="M2018.16 402C2012.49 402.167 2001.56 406.6 2003.16 423" stroke="black" stroke-width="13" stroke-linecap="round"/>
<path d="M2026.16 419C2020.49 419.167 2009.56 423.6 2011.16 440" stroke="black" stroke-width="13" stroke-linecap="round"/>
<path d="M1985 419C1990.67 419.167 2001.6 423.6 2000 440" stroke="black" stroke-width="13" stroke-linecap="round"/>
<defs>
<filter id="filter0_d_24_127" x="1487.5" y="423.501" width="118.749" height="218.809" filterUnits="userSpaceOnUse" color-interpolation-filters="sRGB">
<feFlood flood-opacity="0" result="BackgroundImageFix"/>
<feColorMatrix in="SourceAlpha" type="matrix" values="0 0 0 0 0 0 0 0 0 0 0 0 0 0 0 0 0 0 127 0" result="hardAlpha"/>
<feOffset dy="18"/>
<feGaussianBlur stdDeviation="2"/>
<feComposite in2="hardAlpha" operator="out"/>
<feColorMatrix type="matrix" values="0 0 0 0 0 0 0 0 0 0 0 0 0 0 0 0 0 0 0.25 0"/>
<feBlend mode="normal" in2="BackgroundImageFix" result="effect1_dropShadow_24_127"/>
<feBlend mode="normal" in="SourceGraphic" in2="effect1_dropShadow_24_127" result="shape"/>
</filter>
<filter id="filter1_d_24_127" x="1487.5" y="423.501" width="118.749" height="204.809" filterUnits="userSpaceOnUse" color-interpolation-filters="sRGB">
<feFlood flood-opacity="0" result="BackgroundImageFix"/>
<feColorMatrix in="SourceAlpha" type="matrix" values="0 0 0 0 0 0 0 0 0 0 0 0 0 0 0 0 0 0 127 0" result="hardAlpha"/>
<feOffset dy="4"/>
<feGaussianBlur stdDeviation="2"/>
<feComposite in2="hardAlpha" operator="out"/>
<feColorMatrix type="matrix" values="0 0 0 0 0 0 0 0 0 0 0 0 0 0 0 0 0 0 0.25 0"/>
<feBlend mode="normal" in2="BackgroundImageFix" result="effect1_dropShadow_24_127"/>
<feBlend mode="normal" in="SourceGraphic" in2="effect1_dropShadow_24_127" result="shape"/>
</filter>
<filter id="filter2_d_24_127" x="1012.81" y="238.753" width="94.1445" height="106.311" filterUnits="userSpaceOnUse" color-interpolation-filters="sRGB">
<feFlood flood-opacity="0" result="BackgroundImageFix"/>
<feColorMatrix in="SourceAlpha" type="matrix" values="0 0 0 0 0 0 0 0 0 0 0 0 0 0 0 0 0 0 127 0" result="hardAlpha"/>
<feOffset dy="18"/>
<feGaussianBlur stdDeviation="2"/>
<feComposite in2="hardAlpha" operator="out"/>
<feColorMatrix type="matrix" values="0 0 0 0 0 0 0 0 0 0 0 0 0 0 0 0 0 0 0.25 0"/>
<feBlend mode="normal" in2="BackgroundImageFix" result="effect1_dropShadow_24_127"/>
<feBlend mode="normal" in="SourceGraphic" in2="effect1_dropShadow_24_127" result="shape"/>
</filter>
<filter id="filter3_d_24_127" x="1013.52" y="238.753" width="92.7312" height="90.8972" filterUnits="userSpaceOnUse" color-interpolation-filters="sRGB">
<feFlood flood-opacity="0" result="BackgroundImageFix"/>
<feColorMatrix in="SourceAlpha" type="matrix" values="0 0 0 0 0 0 0 0 0 0 0 0 0 0 0 0 0 0 127 0" result="hardAlpha"/>
<feOffset dy="3.29334"/>
<feGaussianBlur stdDeviation="1.64667"/>
<feComposite in2="hardAlpha" operator="out"/>
<feColorMatrix type="matrix" values="0 0 0 0 0 0 0 0 0 0 0 0 0 0 0 0 0 0 0.25 0"/>
<feBlend mode="normal" in2="BackgroundImageFix" result="effect1_dropShadow_24_127"/>
<feBlend mode="normal" in="SourceGraphic" in2="effect1_dropShadow_24_127" result="shape"/>
</filter>
<filter id="filter4_d_24_127" x="1135.94" y="131.941" width="109.794" height="125.444" filterUnits="userSpaceOnUse" color-interpolation-filters="sRGB">
<feFlood flood-opacity="0" result="BackgroundImageFix"/>
<feColorMatrix in="SourceAlpha" type="matrix" values="0 0 0 0 0 0 0 0 0 0 0 0 0 0 0 0 0 0 127 0" result="hardAlpha"/>
<feOffset dy="18"/>
<feGaussianBlur stdDeviation="2"/>
<feComposite in2="hardAlpha" operator="out"/>
<feColorMatrix type="matrix" values="0 0 0 0 0 0 0 0 0 0 0 0 0 0 0 0 0 0 0.25 0"/>
<feBlend mode="normal" in2="BackgroundImageFix" result="effect1_dropShadow_24_127"/>
<feBlend mode="normal" in="SourceGraphic" in2="effect1_dropShadow_24_127" result="shape"/>
</filter>
<filter id="filter5_d_24_127" x="1284.38" y="181.5" width="120.722" height="129.113" filterUnits="userSpaceOnUse" color-interpolation-filters="sRGB">
<feFlood flood-opacity="0" result="BackgroundImageFix"/>
<feColorMatrix in="SourceAlpha" type="matrix" values="0 0 0 0 0 0 0 0 0 0 0 0 0 0 0 0 0 0 127 0" result="hardAlpha"/>
<feOffset dy="18"/>
<feGaussianBlur stdDeviation="2"/>
<feComposite in2="hardAlpha" operator="out"/>
<feColorMatrix type="matrix" values="0 0 0 0 0 0 0 0 0 0 0 0 0 0 0 0 0 0 0.25 0"/>
<feBlend mode="normal" in2="BackgroundImageFix" result="effect1_dropShadow_24_127"/>
<feBlend mode="normal" in="SourceGraphic" in2="effect1_dropShadow_24_127" result="shape"/>
</filter>
<filter id="filter6_d_24_127" x="617" y="501.761" width="66.7227" height="185.668" filterUnits="userSpaceOnUse" color-interpolation-filters="sRGB">
<feFlood flood-opacity="0" result="BackgroundImageFix"/>
<feColorMatrix in="SourceAlpha" type="matrix" values="0 0 0 0 0 0 0 0 0 0 0 0 0 0 0 0 0 0 127 0" result="hardAlpha"/>
<feOffset dy="18"/>
<feGaussianBlur stdDeviation="2"/>
<feComposite in2="hardAlpha" operator="out"/>
<feColorMatrix type="matrix" values="0 0 0 0 0 0 0 0 0 0 0 0 0 0 0 0 0 0 0.25 0"/>
<feBlend mode="normal" in2="BackgroundImageFix" result="effect1_dropShadow_24_127"/>
<feBlend mode="normal" in="SourceGraphic" in2="effect1_dropShadow_24_127" result="shape"/>
</filter>
<filter id="filter7_d_24_127" x="640.105" y="459.608" width="65.4297" height="184.771" filterUnits="userSpaceOnUse" color-interpolation-filters="sRGB">
<feFlood flood-opacity="0" result="BackgroundImageFix"/>
<feColorMatrix in="SourceAlpha" type="matrix" values="0 0 0 0 0 0 0 0 0 0 0 0 0 0 0 0 0 0 127 0" result="hardAlpha"/>
<feOffset dy="18"/>
<feGaussianBlur stdDeviation="2"/>
<feComposite in2="hardAlpha" operator="out"/>
<feColorMatrix type="matrix" values="0 0 0 0 0 0 0 0 0 0 0 0 0 0 0 0 0 0 0.25 0"/>
<feBlend mode="normal" in2="BackgroundImageFix" result="effect1_dropShadow_24_127"/>
<feBlend mode="normal" in="SourceGraphic" in2="effect1_dropShadow_24_127" result="shape"/>
</filter>
<filter id="filter8_d_24_127" x="678.583" y="495.165" width="63.9248" height="186.468" filterUnits="userSpaceOnUse" color-interpolation-filters="sRGB">
<feFlood flood-opacity="0" result="BackgroundImageFix"/>
<feColorMatrix in="SourceAlpha" type="matrix" values="0 0 0 0 0 0 0 0 0 0 0 0 0 0 0 0 0 0 127 0" result="hardAlpha"/>
<feOffset dy="18"/>
<feGaussianBlur stdDeviation="2"/>
<feComposite in2="hardAlpha" operator="out"/>
<feColorMatrix type="matrix" values="0 0 0 0 0 0 0 0 0 0 0 0 0 0 0 0 0 0 0.25 0"/>
<feBlend mode="normal" in2="BackgroundImageFix" result="effect1_dropShadow_24_127"/>
<feBlend mode="normal" in="SourceGraphic" in2="effect1_dropShadow_24_127" result="shape"/>
</filter>
<filter id="filter9_d_24_127" x="1715.5" y="107.5" width="236.475" height="116.159" filterUnits="userSpaceOnUse" color-interpolation-filters="sRGB">
<feFlood flood-opacity="0" result="BackgroundImageFix"/>
<feColorMatrix in="SourceAlpha" type="matrix" values="0 0 0 0 0 0 0 0 0 0 0 0 0 0 0 0 0 0 127 0" result="hardAlpha"/>
<feOffset dy="18"/>
<feGaussianBlur stdDeviation="2"/>
<feComposite in2="hardAlpha" operator="out"/>
<feColorMatrix type="matrix" values="0 0 0 0 0 0 0 0 0 0 0 0 0 0 0 0 0 0 0.25 0"/>
<feBlend mode="normal" in2="BackgroundImageFix" result="effect1_dropShadow_24_127"/>
<feBlend mode="normal" in="SourceGraphic" in2="effect1_dropShadow_24_127" result="shape"/>
</filter>
<filter id="filter10_d_24_127" x="1715.5" y="107.5" width="236.475" height="102.159" filterUnits="userSpaceOnUse" color-interpolation-filters="sRGB">
<feFlood flood-opacity="0" result="BackgroundImageFix"/>
<feColorMatrix in="SourceAlpha" type="matrix" values="0 0 0 0 0 0 0 0 0 0 0 0 0 0 0 0 0 0 127 0" result="hardAlpha"/>
<feOffset dy="4"/>
<feGaussianBlur stdDeviation="2"/>
<feComposite in2="hardAlpha" operator="out"/>
<feColorMatrix type="matrix" values="0 0 0 0 0 0 0 0 0 0 0 0 0 0 0 0 0 0 0.25 0"/>
<feBlend mode="normal" in2="BackgroundImageFix" result="effect1_dropShadow_24_127"/>
<feBlend mode="normal" in="SourceGraphic" in2="effect1_dropShadow_24_127" result="shape"/>
</filter>
</defs>
</svg>
