<svg width="574" height="819" viewBox="0 0 574 819" fill="none" xmlns="http://www.w3.org/2000/svg">
<path d="M179.783 122.232L193.283 111.232C192.283 109.898 190.883 101.132 193.283 76.7316C196.283 46.2316 221.783 27.2316 227.283 23.2316L227.434 23.1216C233.463 18.7311 272.305 -9.55527 331.783 14.7316C379.783 34.3316 383.116 87.2316 378.783 111.232L390.283 122.232V140.732C390.283 150.732 372.283 181.732 355.783 225.732C339.283 269.732 362.283 273.732 409.783 283.732C457.283 293.732 479.283 313.732 498.283 341.732C517.283 369.732 532.783 565.232 538.283 572.732C543.783 580.232 564.283 640.732 567.283 659.232C569.683 674.032 566.283 774.833 564.283 812H502.283C495.116 783.667 479.383 699.232 473.783 679.232C468.183 659.232 463.783 603.232 462.283 577.732L433.783 493.232C432.949 500.232 431.383 518.132 431.783 533.732C432.283 553.232 421.783 639.232 420.783 667.732C419.983 690.532 431.783 779.333 437.783 809.5L130.783 811.5C133.616 799.167 140.783 741.032 146.783 698.232C154.283 644.732 139.283 593.232 139.283 586.732V492.232L108.283 584.232C106.949 601.565 104.283 639.432 104.283 652.232C104.283 665.032 80.9494 772.667 69.2827 813.5C49.1161 813.5 8.78283 812.5 8.78283 808.5V763.732C6.61616 733.565 3.08283 666.932 6.28283 641.732C9.48283 616.532 27.2828 581.232 35.7828 566.732L51.7828 448.732C56.4495 412.065 73.2828 333.032 103.283 310.232C140.783 281.732 169.283 287.732 195.283 278.232C221.283 268.732 215.783 269.232 221.783 247.232C227.783 225.232 189.283 155.732 184.783 146.732C181.183 139.532 179.95 127.398 179.783 122.232Z" fill="#96BCD5" stroke="black" stroke-width="10" stroke-linecap="round"/>
</svg>
