<svg width="574" height="819" viewBox="0 0 574 819" fill="none" xmlns="http://www.w3.org/2000/svg">
<path d="M179.783 122.232L193.283 111.232C192.283 109.898 190.883 101.132 193.283 76.7316C196.283 46.2316 221.783 27.2316 227.283 23.2316L227.434 23.1216C233.463 18.7311 272.305 -9.55527 331.783 14.7316C379.783 34.3316 383.116 87.2316 378.783 111.232L390.283 122.232V140.732C390.283 150.732 372.283 181.732 355.783 225.732C339.283 269.732 362.283 273.732 409.783 283.732C457.283 293.732 479.283 313.732 498.283 341.732C517.283 369.732 532.783 565.232 538.283 572.732C543.783 580.232 564.283 640.732 567.283 659.232C569.683 674.032 566.283 774.833 564.283 812H502.283C495.116 783.667 479.383 699.232 473.783 679.232C468.183 659.232 463.783 603.232 462.283 577.732L433.783 493.232C432.949 500.232 431.383 518.132 431.783 533.732C432.283 553.232 421.783 639.232 420.783 667.732C419.983 690.532 431.783 779.333 437.783 809.5L130.783 811.5C133.616 799.167 140.783 741.032 146.783 698.232C154.283 644.732 139.283 593.232 139.283 586.732V492.232L108.283 584.232C106.949 601.565 104.283 639.432 104.283 652.232C104.283 665.032 80.9494 772.667 69.2827 813.5C49.1161 813.5 8.78283 812.5 8.78283 808.5V763.732C6.61616 733.565 3.08283 666.932 6.28283 641.732C9.48283 616.532 27.2828 581.232 35.7828 566.732L51.7828 448.732C56.4495 412.065 73.2828 333.032 103.283 310.232C140.783 281.732 169.283 287.732 195.283 278.232C221.283 268.732 215.783 269.232 221.783 247.232C227.783 225.232 189.283 155.732 184.783 146.732C181.183 139.532 179.95 127.398 179.783 122.232Z" fill="#96BCD5" stroke="black" stroke-width="10" stroke-linecap="round"/>
<g filter="url(#filter0_d_22_1082)">
<circle cx="447.5" cy="680.5" r="80" fill="white" stroke="black" stroke-width="9"/>
<g filter="url(#filter1_d_22_1082)">
<path d="M440.515 676.218C438.408 673.91 432.949 673.501 430.482 673.584L432.74 677.597C433.241 677.681 434.671 677.873 436.377 677.974C438.509 678.099 440.515 681.485 441.017 682.614C441.418 683.517 441.184 708.24 441.017 720.488H444.654C444.487 708.992 444.127 685.448 444.027 683.241C443.902 680.482 443.149 679.102 440.515 676.218Z" fill="#1576B4" stroke="#1576B4" stroke-width="3.27789" stroke-linecap="round"/>
<path d="M455.189 676.228C457.296 673.92 462.755 673.51 465.222 673.594L462.964 677.607C462.463 677.691 461.033 677.883 459.328 677.983C457.196 678.109 455.189 681.495 454.687 682.624C454.286 683.527 454.52 708.25 454.687 720.498H451.05C451.218 709.002 451.577 685.458 451.677 683.251C451.803 680.492 452.555 679.112 455.189 676.228Z" fill="#1576B4" stroke="#1576B4" stroke-width="3.27789" stroke-linecap="round"/>
<path d="M433.492 651.763C437.706 655.375 432.071 661.879 428.727 664.68C430.859 665.934 430.357 669.321 430.232 671.703C430.131 673.61 429.187 674.839 428.727 675.215C430.148 675.633 433.417 677.472 435.123 681.486C437.255 686.502 433.492 694.152 421.954 695.657C410.416 697.162 400.634 683.241 401.011 672.456C401.387 661.67 410.166 652.264 416.185 649.756C422.205 647.248 428.225 647.248 433.492 651.763Z" fill="#1576B4" stroke="#1576B4" stroke-width="3.27789" stroke-linecap="round"/>
<path d="M434.12 666.31C433.618 666.109 432.155 664.136 431.486 663.175L433.869 660.792C434.747 661.921 436.879 664.68 437.631 664.931C438.233 665.131 442.648 664.596 444.78 664.304V669.445C442.606 669.153 437.681 668.743 435.374 669.445C433.066 670.148 430.901 671.996 430.106 672.832C430.064 671.912 430.207 669.772 431.11 668.568C432.238 667.063 434.747 666.561 434.12 666.31Z" fill="#1576B4" stroke="#1576B4" stroke-width="3.27789" stroke-linecap="round"/>
<path d="M462.337 651.691C458.123 655.303 463.759 661.808 467.103 664.609C464.971 665.863 465.473 669.249 465.598 671.632C465.698 673.538 466.643 674.767 467.103 675.144C465.682 675.562 462.412 677.401 460.707 681.414C458.575 686.431 462.337 694.081 473.875 695.586C485.413 697.091 495.195 683.17 494.819 672.385C494.443 661.599 485.664 652.193 479.644 649.685C473.624 647.177 467.605 647.177 462.337 651.691Z" fill="#1576B4" stroke="#1576B4" stroke-width="3.27789" stroke-linecap="round"/>
<path d="M461.71 666.239C462.212 666.038 463.675 664.065 464.344 663.104L461.961 660.721C461.083 661.849 458.951 664.608 458.199 664.859C457.597 665.06 453.182 664.525 451.05 664.232V669.374C453.224 669.082 458.149 668.672 460.456 669.374C462.764 670.076 464.929 671.924 465.724 672.76C465.765 671.841 465.623 669.7 464.72 668.496C463.592 666.991 461.083 666.49 461.71 666.239Z" fill="#1576B4" stroke="#1576B4" stroke-width="3.27789" stroke-linecap="round"/>
</g>
<g filter="url(#filter2_d_22_1082)">
<path d="M424.964 662.674C426.302 663.635 428.952 666.06 428.852 668.067C429.103 668.944 429.178 671.202 427.472 673.208C425.767 675.215 424.504 675.884 424.086 675.968" stroke="white" stroke-width="3.27789" stroke-linecap="round"/>
<path d="M471 662.548C469.662 663.509 467.012 665.934 467.112 667.941C466.861 668.818 466.786 671.076 468.492 673.083C470.197 675.089 471.46 675.758 471.878 675.842" stroke="white" stroke-width="3.27789" stroke-linecap="round"/>
<circle cx="470.238" cy="652.515" r="1.04926" fill="white" stroke="white" stroke-width="0.409736"/>
<circle cx="467.353" cy="654.397" r="0.422194" fill="white" stroke="white" stroke-width="0.409736"/>
<circle cx="470.865" cy="655.651" r="0.422194" fill="white" stroke="white" stroke-width="0.409736"/>
<circle cx="1.25412" cy="1.25412" r="1.04926" transform="matrix(-1 0 0 1 429.604 651.763)" fill="white" stroke="white" stroke-width="0.409736"/>
<circle cx="0.627062" cy="0.627062" r="0.422194" transform="matrix(-1 0 0 1 431.862 654.271)" fill="white" stroke="white" stroke-width="0.409736"/>
<circle cx="0.627062" cy="0.627062" r="0.422194" transform="matrix(-1 0 0 1 428.35 655.524)" fill="white" stroke="white" stroke-width="0.409736"/>
<path d="M408.159 686.126C409.078 688.174 411.821 692.346 415.433 692.647" stroke="white" stroke-width="3.27789" stroke-linecap="round"/>
<path d="M488.047 686.126C487.127 688.174 484.385 692.346 480.773 692.647" stroke="white" stroke-width="3.27789" stroke-linecap="round"/>
</g>
</g>
<g filter="url(#filter3_d_22_1082)">
<circle cx="283.5" cy="511.5" r="80" fill="white" stroke="black" stroke-width="9"/>
<path d="M273.685 502.613C275.976 500.804 280.985 497.909 283.093 497.909C285.626 497.909 288.521 499.718 291.416 502.251" stroke="#1776B1" stroke-width="2.89485" stroke-linecap="round"/>
<g filter="url(#filter4_d_22_1082)">
<path d="M280.198 485.968V461H286.711V485.968L290.873 491.034C292.38 487.657 296.264 480.54 299.738 479.093C304.08 477.284 311.318 481.264 314.212 484.883C317.107 488.501 325.068 498.995 326.877 504.061C328.687 509.127 336.286 539.161 326.877 545.674C317.469 552.188 313.127 543.141 310.956 543.865C308.785 544.589 302.633 544.951 299.376 544.951C296.12 544.951 287.073 518.535 287.797 506.956C287.835 505.146 284.54 502.613 282.731 502.252C281.284 501.962 279.233 504.543 278.389 505.87C280.198 519.259 271.875 543.141 267.895 543.865C264.711 544.444 258.848 544.106 256.315 543.865C253.541 545.795 246.69 548.859 241.479 545.674C234.966 541.694 236.775 524.325 239.308 504.061C241.335 487.85 257.763 479.937 265.724 478.007C271.513 478.007 275.011 486.692 276.037 491.034L280.198 485.968Z" fill="#1576B4"/>
<path d="M271.875 496.1L276.037 491.034M276.037 491.034L280.198 485.968V461H286.711V485.968L290.873 491.034M276.037 491.034C275.011 486.692 271.513 478.007 265.724 478.007C257.763 479.937 241.335 487.85 239.308 504.061C236.775 524.325 234.966 541.694 241.479 545.674C246.69 548.859 253.541 545.795 256.315 543.865C258.848 544.106 264.711 544.444 267.895 543.865C271.875 543.141 280.198 519.259 278.389 505.87C279.233 504.543 281.284 501.962 282.731 502.252C284.54 502.613 287.835 505.146 287.797 506.956C287.073 518.535 296.12 544.951 299.376 544.951C302.633 544.951 308.785 544.589 310.956 543.865C313.127 543.141 317.469 552.188 326.877 545.674C336.286 539.161 328.687 509.127 326.877 504.061C325.068 498.995 317.107 488.501 314.212 484.883C311.318 481.264 304.08 477.284 299.738 479.093C296.264 480.54 292.38 487.657 290.873 491.034M295.034 496.1L290.873 491.034" stroke="#1576B4" stroke-width="5.7897" stroke-linecap="round"/>
</g>
<g filter="url(#filter5_d_22_1082)">
<path d="M266.809 491.758C265.672 493.464 263.84 496.501 262.467 499.479M260.658 505.146C260.424 508.185 260.19 513.49 259.761 517.45C259.526 519.619 259.233 521.385 258.849 522.154C258.772 522.307 258.649 522.506 258.487 522.742M260.658 505.146L265 508.765M260.658 505.146C260.777 503.601 261.51 501.554 262.467 499.479M247.993 534.819C250.961 531.63 256.816 525.175 258.487 522.742M258.487 522.742C256.436 522.667 251.684 522.95 249.078 524.687M265 508.765L265.724 515.278M265 508.765L269.704 508.403M262.467 499.479C260.078 500.645 255.745 502.997 252.697 505.299M246.907 512.745C247.028 512.384 247.776 510.936 249.802 508.041C250.395 507.194 251.436 506.251 252.697 505.299M252.697 505.299L245.822 504.423" stroke="white" stroke-width="2.89485" stroke-linecap="round"/>
<path d="M259.934 517.449C261.14 519.017 263.625 522.805 263.914 525.41M263.914 525.41C264.204 528.015 264.035 532.044 263.914 533.733M263.914 525.41L269.342 526.134" stroke="white" stroke-width="2.89485" stroke-linecap="round"/>
</g>
<g filter="url(#filter6_d_22_1082)">
<path d="M300.824 492.119C301.961 493.825 303.793 496.862 305.166 499.84M306.975 505.508C307.209 508.547 307.443 513.851 307.872 517.811C308.107 519.981 308.4 521.747 308.785 522.515C308.862 522.669 308.984 522.867 309.147 523.103M306.975 505.508L302.633 509.126M306.975 505.508C306.857 503.962 306.123 501.916 305.166 499.84M319.64 535.18C316.672 531.992 310.817 525.536 309.147 523.103M309.147 523.103C311.197 523.028 315.949 523.311 318.555 525.048M302.633 509.126L301.909 515.64M302.633 509.126L297.929 508.765M305.166 499.84C307.555 501.006 311.888 503.359 314.936 505.66M320.726 513.107C320.605 512.745 319.858 511.298 317.831 508.403C317.238 507.556 316.197 506.612 314.936 505.66M314.936 505.66L321.812 504.784" stroke="white" stroke-width="2.89485" stroke-linecap="round"/>
<path d="M307.699 517.811C306.493 519.379 304.008 523.166 303.719 525.771M303.719 525.771C303.429 528.377 303.598 532.405 303.719 534.094M303.719 525.771L298.291 526.495" stroke="white" stroke-width="2.89485" stroke-linecap="round"/>
</g>
</g>
<g filter="url(#filter7_d_22_1082)">
<circle cx="118.5" cy="680.5" r="80" fill="white" stroke="black" stroke-width="9"/>
<g filter="url(#filter8_d_22_1082)">
<path fill-rule="evenodd" clip-rule="evenodd" d="M117.023 660.322C116.295 658.187 113.237 653.915 106.83 653.915C106.632 653.915 106.432 653.915 106.229 653.915C98.2048 653.908 86.0746 653.897 77.2689 664.691C68.2405 675.758 66.7843 687.844 72.0266 701.096C74.3368 706.936 75.6007 711.531 76.5909 715.131C77.8476 719.701 78.6634 722.667 80.6182 724.541C81.2194 725.117 81.7518 725.728 82.2715 726.324C84.7725 729.193 86.9816 731.728 95.1801 728.472C103.102 725.327 105.276 719.395 105.374 716.823C109.014 716.046 117.052 713.357 120.081 708.814C120.72 707.855 121.393 706.971 122.058 706.096C124.329 703.11 126.522 700.227 127.05 694.831L129.723 706.106L137.004 704.796L133.865 689.096C135.101 689.159 136.401 688.979 137.701 688.427C143.526 685.951 160.709 675.758 163.185 662.507C163.638 660.078 164.116 657.928 164.547 655.991C166.468 647.357 167.449 642.943 161.146 636.877C154.656 630.633 146.21 637.361 142.128 640.613C141.356 641.228 140.739 641.719 140.322 641.974C139.354 642.566 137.135 643.118 134.574 643.754C130.2 644.842 124.83 646.177 122.994 648.381C122.379 649.119 121.783 649.727 121.221 650.302C119.12 652.447 117.483 654.119 117.023 660.322ZM127.464 686.646C127.142 686.404 126.863 686.168 126.634 685.951C126.69 686.316 126.742 686.673 126.789 687.023L127.464 686.646Z" fill="#1776B1"/>
<circle cx="2.32992" cy="2.32992" r="2.1843" transform="matrix(0.766512 -0.64223 -0.64223 -0.766512 104.723 663.888)" fill="white" stroke="white" stroke-width="0.29124"/>
<path d="M74.4995 686.884C73.7715 685.088 74.5286 679.807 77.5575 675.38M81.6349 668.973C83.0911 666.254 88.5373 660.73 98.6724 660.381M123.137 657.177C123.573 655.284 125.612 651.09 130.272 649.459C134.932 647.829 140.562 646.644 142.795 646.256" stroke="white" stroke-width="3.78611" stroke-linecap="round"/>
</g>
</g>
<g filter="url(#filter9_d_22_1082)">
<circle cx="394.5" cy="323.5" r="80" fill="white" stroke="#0D0000" stroke-width="9"/>
</g>
<g filter="url(#filter10_d_22_1082)">
<path d="M441.639 330.84L394.302 374L349.285 330.84C344.954 326.199 337.59 313.204 342.788 298.353C349.285 279.79 368.777 281.182 372.025 282.11C375.274 283.038 391.517 293.248 394.302 299.281C396.622 295.105 404.048 285.823 416.578 282.11C429.109 278.397 441.639 283.966 447.672 299.281C452.499 311.533 445.661 325.425 441.639 330.84Z" fill="#1576B4"/>
</g>
<path d="M371.5 289.5C368.167 287.667 360 285.8 354 293C346.5 302 347.5 306 348.5 312.5" stroke="white" stroke-width="4" stroke-linecap="round"/>
<path d="M404.5 298.5C405.167 295.167 410.3 288.2 425.5 287" stroke="white" stroke-width="4" stroke-linecap="round"/>
<defs>
<filter id="filter0_d_22_1082" x="359" y="596" width="177" height="177" filterUnits="userSpaceOnUse" color-interpolation-filters="sRGB">
<feFlood flood-opacity="0" result="BackgroundImageFix"/>
<feColorMatrix in="SourceAlpha" type="matrix" values="0 0 0 0 0 0 0 0 0 0 0 0 0 0 0 0 0 0 127 0" result="hardAlpha"/>
<feOffset dy="4"/>
<feGaussianBlur stdDeviation="2"/>
<feComposite in2="hardAlpha" operator="out"/>
<feColorMatrix type="matrix" values="0 0 0 0 0 0 0 0 0 0 0 0 0 0 0 0 0 0 0.25 0"/>
<feBlend mode="normal" in2="BackgroundImageFix" result="effect1_dropShadow_22_1082"/>
<feBlend mode="normal" in="SourceGraphic" in2="effect1_dropShadow_22_1082" result="shape"/>
</filter>
<filter id="filter1_d_22_1082" x="396.312" y="646.362" width="103.206" height="81.8725" filterUnits="userSpaceOnUse" color-interpolation-filters="sRGB">
<feFlood flood-opacity="0" result="BackgroundImageFix"/>
<feColorMatrix in="SourceAlpha" type="matrix" values="0 0 0 0 0 0 0 0 0 0 0 0 0 0 0 0 0 0 127 0" result="hardAlpha"/>
<feOffset dy="3.04906"/>
<feGaussianBlur stdDeviation="1.52453"/>
<feComposite in2="hardAlpha" operator="out"/>
<feColorMatrix type="matrix" values="0 0 0 0 0 0 0 0 0 0 0 0 0 0 0 0 0 0 0.25 0"/>
<feBlend mode="normal" in2="BackgroundImageFix" result="effect1_dropShadow_22_1082"/>
<feBlend mode="normal" in="SourceGraphic" in2="effect1_dropShadow_22_1082" result="shape"/>
</filter>
<filter id="filter2_d_22_1082" x="403.47" y="651.261" width="89.2649" height="49.1235" filterUnits="userSpaceOnUse" color-interpolation-filters="sRGB">
<feFlood flood-opacity="0" result="BackgroundImageFix"/>
<feColorMatrix in="SourceAlpha" type="matrix" values="0 0 0 0 0 0 0 0 0 0 0 0 0 0 0 0 0 0 127 0" result="hardAlpha"/>
<feOffset dy="3.04906"/>
<feGaussianBlur stdDeviation="1.52453"/>
<feComposite in2="hardAlpha" operator="out"/>
<feColorMatrix type="matrix" values="0 0 0 0 0 0 0 0 0 0 0 0 0 0 0 0 0 0 0.25 0"/>
<feBlend mode="normal" in2="BackgroundImageFix" result="effect1_dropShadow_22_1082"/>
<feBlend mode="normal" in="SourceGraphic" in2="effect1_dropShadow_22_1082" result="shape"/>
</filter>
<filter id="filter3_d_22_1082" x="195" y="427" width="177" height="177" filterUnits="userSpaceOnUse" color-interpolation-filters="sRGB">
<feFlood flood-opacity="0" result="BackgroundImageFix"/>
<feColorMatrix in="SourceAlpha" type="matrix" values="0 0 0 0 0 0 0 0 0 0 0 0 0 0 0 0 0 0 127 0" result="hardAlpha"/>
<feOffset dy="4"/>
<feGaussianBlur stdDeviation="2"/>
<feComposite in2="hardAlpha" operator="out"/>
<feColorMatrix type="matrix" values="0 0 0 0 0 0 0 0 0 0 0 0 0 0 0 0 0 0 0.25 0"/>
<feBlend mode="normal" in2="BackgroundImageFix" result="effect1_dropShadow_22_1082"/>
<feBlend mode="normal" in="SourceGraphic" in2="effect1_dropShadow_22_1082" result="shape"/>
</filter>
<filter id="filter4_d_22_1082" x="231.21" y="458.105" width="106.07" height="98.6247" filterUnits="userSpaceOnUse" color-interpolation-filters="sRGB">
<feFlood flood-opacity="0" result="BackgroundImageFix"/>
<feColorMatrix in="SourceAlpha" type="matrix" values="0 0 0 0 0 0 0 0 0 0 0 0 0 0 0 0 0 0 127 0" result="hardAlpha"/>
<feOffset dy="2.89485"/>
<feGaussianBlur stdDeviation="1.44742"/>
<feComposite in2="hardAlpha" operator="out"/>
<feColorMatrix type="matrix" values="0 0 0 0 0 0 0 0 0 0 0 0 0 0 0 0 0 0 0.25 0"/>
<feBlend mode="normal" in2="BackgroundImageFix" result="effect1_dropShadow_22_1082"/>
<feBlend mode="normal" in="SourceGraphic" in2="effect1_dropShadow_22_1082" result="shape"/>
</filter>
<filter id="filter5_d_22_1082" x="241.479" y="490.311" width="32.5673" height="51.7458" filterUnits="userSpaceOnUse" color-interpolation-filters="sRGB">
<feFlood flood-opacity="0" result="BackgroundImageFix"/>
<feColorMatrix in="SourceAlpha" type="matrix" values="0 0 0 0 0 0 0 0 0 0 0 0 0 0 0 0 0 0 127 0" result="hardAlpha"/>
<feOffset dy="2.89485"/>
<feGaussianBlur stdDeviation="1.44742"/>
<feComposite in2="hardAlpha" operator="out"/>
<feColorMatrix type="matrix" values="0 0 0 0 0 0 0 0 0 0 0 0 0 0 0 0 0 0 0.25 0"/>
<feBlend mode="normal" in2="BackgroundImageFix" result="effect1_dropShadow_22_1082"/>
<feBlend mode="normal" in="SourceGraphic" in2="effect1_dropShadow_22_1082" result="shape"/>
</filter>
<filter id="filter6_d_22_1082" x="293.587" y="490.672" width="32.5673" height="51.7458" filterUnits="userSpaceOnUse" color-interpolation-filters="sRGB">
<feFlood flood-opacity="0" result="BackgroundImageFix"/>
<feColorMatrix in="SourceAlpha" type="matrix" values="0 0 0 0 0 0 0 0 0 0 0 0 0 0 0 0 0 0 127 0" result="hardAlpha"/>
<feOffset dy="2.89485"/>
<feGaussianBlur stdDeviation="1.44742"/>
<feComposite in2="hardAlpha" operator="out"/>
<feColorMatrix type="matrix" values="0 0 0 0 0 0 0 0 0 0 0 0 0 0 0 0 0 0 0.25 0"/>
<feBlend mode="normal" in2="BackgroundImageFix" result="effect1_dropShadow_22_1082"/>
<feBlend mode="normal" in="SourceGraphic" in2="effect1_dropShadow_22_1082" result="shape"/>
</filter>
<filter id="filter7_d_22_1082" x="30" y="596" width="177" height="177" filterUnits="userSpaceOnUse" color-interpolation-filters="sRGB">
<feFlood flood-opacity="0" result="BackgroundImageFix"/>
<feColorMatrix in="SourceAlpha" type="matrix" values="0 0 0 0 0 0 0 0 0 0 0 0 0 0 0 0 0 0 127 0" result="hardAlpha"/>
<feOffset dy="4"/>
<feGaussianBlur stdDeviation="2"/>
<feComposite in2="hardAlpha" operator="out"/>
<feColorMatrix type="matrix" values="0 0 0 0 0 0 0 0 0 0 0 0 0 0 0 0 0 0 0.25 0"/>
<feBlend mode="normal" in2="BackgroundImageFix" result="effect1_dropShadow_22_1082"/>
<feBlend mode="normal" in="SourceGraphic" in2="effect1_dropShadow_22_1082" result="shape"/>
</filter>
<filter id="filter8_d_22_1082" x="67.835" y="634.315" width="99.3299" height="98.0145" filterUnits="userSpaceOnUse" color-interpolation-filters="sRGB">
<feFlood flood-opacity="0" result="BackgroundImageFix"/>
<feColorMatrix in="SourceAlpha" type="matrix" values="0 0 0 0 0 0 0 0 0 0 0 0 0 0 0 0 0 0 127 0" result="hardAlpha"/>
<feOffset dy="1.16496"/>
<feGaussianBlur stdDeviation="0.582479"/>
<feComposite in2="hardAlpha" operator="out"/>
<feColorMatrix type="matrix" values="0 0 0 0 0 0 0 0 0 0 0 0 0 0 0 0 0 0 0.25 0"/>
<feBlend mode="normal" in2="BackgroundImageFix" result="effect1_dropShadow_22_1082"/>
<feBlend mode="normal" in="SourceGraphic" in2="effect1_dropShadow_22_1082" result="shape"/>
</filter>
<filter id="filter9_d_22_1082" x="306" y="239" width="177" height="177" filterUnits="userSpaceOnUse" color-interpolation-filters="sRGB">
<feFlood flood-opacity="0" result="BackgroundImageFix"/>
<feColorMatrix in="SourceAlpha" type="matrix" values="0 0 0 0 0 0 0 0 0 0 0 0 0 0 0 0 0 0 127 0" result="hardAlpha"/>
<feOffset dy="4"/>
<feGaussianBlur stdDeviation="2"/>
<feComposite in2="hardAlpha" operator="out"/>
<feColorMatrix type="matrix" values="0 0 0 0 0 0 0 0 0 0 0 0 0 0 0 0 0 0 0.25 0"/>
<feBlend mode="normal" in2="BackgroundImageFix" result="effect1_dropShadow_22_1082"/>
<feBlend mode="normal" in="SourceGraphic" in2="effect1_dropShadow_22_1082" result="shape"/>
</filter>
<filter id="filter10_d_22_1082" x="337.287" y="281" width="115.758" height="100.425" filterUnits="userSpaceOnUse" color-interpolation-filters="sRGB">
<feFlood flood-opacity="0" result="BackgroundImageFix"/>
<feColorMatrix in="SourceAlpha" type="matrix" values="0 0 0 0 0 0 0 0 0 0 0 0 0 0 0 0 0 0 127 0" result="hardAlpha"/>
<feOffset dy="3.71272"/>
<feGaussianBlur stdDeviation="1.85636"/>
<feComposite in2="hardAlpha" operator="out"/>
<feColorMatrix type="matrix" values="0 0 0 0 0 0 0 0 0 0 0 0 0 0 0 0 0 0 0.25 0"/>
<feBlend mode="normal" in2="BackgroundImageFix" result="effect1_dropShadow_22_1082"/>
<feBlend mode="normal" in="SourceGraphic" in2="effect1_dropShadow_22_1082" result="shape"/>
</filter>
</defs>
</svg>
