<svg width="120" height="220" viewBox="0 0 120 220" fill="none" xmlns="http://www.w3.org/2000/svg">
<g filter="url(#filter0_d_24_56)">
<g filter="url(#filter1_d_24_56)">
<path d="M39.9911 185.585C40.3911 189.185 42.8244 192.751 43.9911 194.085C48.3245 195.751 57.8912 197.685 61.4912 192.085C65.9912 185.085 52.9912 180.085 68.9912 167.085C84.9912 154.085 88.9912 148.585 91.9912 142.085C94.9912 135.585 93.4912 118.085 93.4912 110.585C93.4912 103.085 94.9912 109.585 107.491 93.0848C119.991 76.5848 110.491 62.0848 106.991 55.0848C103.491 48.0848 94.9912 46.5848 93.4912 41.5848C91.9912 36.5848 89.4912 14.0848 81.9912 14.0848C74.4912 14.0848 73.4912 18.5848 71.9912 22.5848C70.4912 26.5848 72.4912 47.0848 86.9912 53.0848C101.491 59.0848 98.9912 70.5848 99.4912 77.0848C99.9912 83.5848 94.9912 88.0848 91.2311 88.5848C87.4711 89.0848 90.9912 78.5848 91.4912 72.0848C91.9912 65.5848 83.9912 61.5848 79.4912 68.0848C74.9912 74.5848 75.4912 89.5848 74.9912 97.5848C74.4912 105.585 81.4912 123.085 81.9912 130.085C82.4912 137.085 75.9912 143.085 75.4912 144.085C74.9912 145.085 68.4912 148.585 74.4912 134.585C80.4912 120.585 73.4912 113.085 71.9912 111.585C70.4912 110.085 61.9912 107.085 58.4912 115.585C54.9912 124.085 61.9912 130.585 62.4912 132.085C62.9912 133.585 61.9912 140.085 57.9912 140.585C53.9912 141.085 57.4912 133.085 55.4912 129.585C53.4912 126.085 50.4912 119.085 50.4912 112.085C50.4912 105.085 55.9912 106.585 64.9912 98.0848C73.9912 89.5848 72.4912 79.0848 71.9912 75.5848C71.4912 72.0848 65.4912 67.0848 68.9912 58.5848C72.4912 50.0848 68.9912 43.5848 65.9912 43.0848C62.9912 42.5848 59.9912 41.0848 55.9912 48.0848C51.9912 55.0848 54.9912 67.5848 55.9912 69.0848C56.9912 70.5848 58.4912 75.5848 58.4912 79.5848C58.4912 83.5848 55.4912 89.5848 51.4912 88.5848C47.4912 87.5848 50.4912 80.0848 47.9912 69.0848C45.4912 58.0848 51.9912 51.0848 52.9912 42.5848C53.9912 34.0848 46.4912 31.5848 47.9912 26.0848C49.4912 20.5848 45.9912 8.5848 43.4912 4.5848C40.9912 0.584802 32.4912 1.0848 27.4912 7.0848C22.4912 13.0848 26.9912 22.5848 27.9912 25.0848C28.9912 27.5848 38.4912 38.0848 39.9912 42.0848C41.4912 46.0848 38.4912 53.5848 35.9912 54.0848C33.4912 54.5848 30.4912 42.0848 29.9912 38.0848C29.4912 34.0848 21.4912 21.5848 15.4912 29.5848C9.49121 37.5848 13.9912 45.0848 17.4911 51.0848C20.991 57.0848 31.4912 65.0848 35.9912 76.5848C40.4912 88.0848 37.4911 99.5848 35.9912 101.085C34.4913 102.585 25.4912 98.0848 26.9911 81.5848C28.491 65.0848 18.9912 60.5848 15.4912 60.5848C11.9912 60.5848 8.49111 62.0848 6.49111 68.0848C4.49111 74.0848 8.49111 97.5848 20.4911 107.085C32.4911 116.585 39.9911 134.085 42.9911 138.585C45.9911 143.085 44.4911 165.085 42.9911 167.085C41.4911 169.085 39.9911 163.585 37.4911 158.585C34.9911 153.585 33.4911 150.085 32.9911 140.085C32.5911 132.085 28.8244 130.751 26.9911 131.085C24.3244 130.751 18.6911 131.785 17.4911 138.585C15.9911 147.085 25.4911 161.085 27.9911 166.085C30.4911 171.085 39.4911 181.085 39.9911 185.585Z" fill="#1576B4"/>
<path d="M39.9911 185.585C40.3911 189.185 42.8244 192.751 43.9911 194.085C48.3245 195.751 57.8912 197.685 61.4912 192.085C65.9912 185.085 52.9912 180.085 68.9912 167.085C84.9912 154.085 88.9912 148.585 91.9912 142.085C94.9912 135.585 93.4912 118.085 93.4912 110.585C93.4912 103.085 94.9912 109.585 107.491 93.0848C119.991 76.5848 110.491 62.0848 106.991 55.0848C103.491 48.0848 94.9912 46.5848 93.4912 41.5848C91.9912 36.5848 89.4912 14.0848 81.9912 14.0848C74.4912 14.0848 73.4912 18.5848 71.9912 22.5848C70.4912 26.5848 72.4912 47.0848 86.9912 53.0848C101.491 59.0848 98.9912 70.5848 99.4912 77.0848C99.9912 83.5848 94.9912 88.0848 91.2311 88.5848C87.4711 89.0848 90.9912 78.5848 91.4912 72.0848C91.9912 65.5848 83.9912 61.5848 79.4912 68.0848C74.9912 74.5848 75.4912 89.5848 74.9912 97.5848C74.4912 105.585 81.4912 123.085 81.9912 130.085C82.4912 137.085 75.9912 143.085 75.4912 144.085C74.9912 145.085 68.4912 148.585 74.4912 134.585C80.4912 120.585 73.4912 113.085 71.9912 111.585C70.4912 110.085 61.9912 107.085 58.4912 115.585C54.9912 124.085 61.9912 130.585 62.4912 132.085C62.9912 133.585 61.9912 140.085 57.9912 140.585C53.9912 141.085 57.4912 133.085 55.4912 129.585C53.4912 126.085 50.4912 119.085 50.4912 112.085C50.4912 105.085 55.9912 106.585 64.9912 98.0848C73.9912 89.5848 72.4912 79.0848 71.9912 75.5848C71.4912 72.0848 65.4912 67.0848 68.9912 58.5848C72.4912 50.0848 68.9912 43.5848 65.9912 43.0848C62.9912 42.5848 59.9912 41.0848 55.9912 48.0848C51.9912 55.0848 54.9912 67.5848 55.9912 69.0848C56.9912 70.5848 58.4912 75.5848 58.4912 79.5848C58.4912 83.5848 55.4912 89.5848 51.4912 88.5848C47.4912 87.5848 50.4912 80.0848 47.9912 69.0848C45.4912 58.0848 51.9912 51.0848 52.9912 42.5848C53.9912 34.0848 46.4912 31.5848 47.9912 26.0848C49.4912 20.5848 45.9912 8.5848 43.4912 4.5848C40.9912 0.584802 32.4912 1.0848 27.4912 7.0848C22.4912 13.0848 26.9912 22.5848 27.9912 25.0848C28.9912 27.5848 38.4912 38.0848 39.9912 42.0848C41.4912 46.0848 38.4912 53.5848 35.9912 54.0848C33.4912 54.5848 30.4912 42.0848 29.9912 38.0848C29.4912 34.0848 21.4912 21.5848 15.4912 29.5848C9.49121 37.5848 13.9912 45.0848 17.4911 51.0848C20.991 57.0848 31.4912 65.0848 35.9912 76.5848C40.4912 88.0848 37.4911 99.5848 35.9912 101.085C34.4913 102.585 25.4912 98.0848 26.9911 81.5848C28.491 65.0848 18.9912 60.5848 15.4912 60.5848C11.9912 60.5848 8.49111 62.0848 6.49111 68.0848C4.49111 74.0848 8.49111 97.5848 20.4911 107.085C32.4911 116.585 39.9911 134.085 42.9911 138.585C45.9911 143.085 44.4911 165.085 42.9911 167.085C41.4911 169.085 39.9911 163.585 37.4911 158.585C34.9911 153.585 33.4911 150.085 32.9911 140.085C32.5911 132.085 28.8244 130.751 26.9911 131.085C24.3244 130.751 18.6911 131.785 17.4911 138.585C15.9911 147.085 25.4911 161.085 27.9911 166.085C30.4911 171.085 39.4911 181.085 39.9911 185.585Z" stroke="white" stroke-width="3" stroke-linecap="round"/>
</g>
<path d="M42.5 13C43.3333 14.1667 44.9 17.6 44.5 22C44 27.5 43 29 46.5 33" stroke="white" stroke-width="3" stroke-linecap="round"/>
<path d="M42 108C44.5 102 42.8332 98.4872 54.5 94C67.5 89 63 77.5 62 76C61 74.5 57.9999 67 59.9999 58.5" stroke="white" stroke-width="3" stroke-linecap="round"/>
<path d="M75 27C75.8333 31.3333 77.9 40.5 79.5 42.5C81.5 45 82 46.5 90.5 52.5" stroke="white" stroke-width="3" stroke-linecap="round"/>
<path d="M18.9999 69.4999C17.8332 67.8333 15.0999 64.7999 13.4999 65.9999C11.4999 67.4999 8.4999 69.9999 10.9999 80.4999" stroke="white" stroke-width="3" stroke-linecap="round"/>
<path d="M29 47C29.1667 51.3333 30.6 59.7 35 58.5C39.4 57.3 40.8333 53 41 51" stroke="white" stroke-width="3" stroke-linecap="round"/>
<path d="M66.8779 139C65.9658 143.24 65.2816 151.7 69.8417 151.628C74.4018 151.556 76.8558 147.745 77.5128 145.848" stroke="white" stroke-width="3" stroke-linecap="round"/>
<circle cx="27" cy="137" r="2" fill="white"/>
<circle cx="62" cy="121" r="2" fill="white"/>
<circle cx="22" cy="75" r="2" fill="white"/>
<circle cx="65" cy="116" r="1" fill="white"/>
<circle cx="83" cy="75" r="2" fill="white"/>
<circle cx="86" cy="70" r="1" fill="white"/>
<circle cx="80.118" cy="19.6464" r="2" transform="rotate(-155.656 80.118 19.6464)" fill="white"/>
<circle cx="75.3234" cy="22.9653" r="1" transform="rotate(-155.656 75.3234 22.9653)" fill="white"/>
<circle cx="64" cy="125" r="1" fill="white"/>
</g>
<defs>
<filter id="filter0_d_24_56" x="0.5" y="0.501465" width="118.749" height="218.809" filterUnits="userSpaceOnUse" color-interpolation-filters="sRGB">
<feFlood flood-opacity="0" result="BackgroundImageFix"/>
<feColorMatrix in="SourceAlpha" type="matrix" values="0 0 0 0 0 0 0 0 0 0 0 0 0 0 0 0 0 0 127 0" result="hardAlpha"/>
<feOffset dy="18"/>
<feGaussianBlur stdDeviation="2"/>
<feComposite in2="hardAlpha" operator="out"/>
<feColorMatrix type="matrix" values="0 0 0 0 0 0 0 0 0 0 0 0 0 0 0 0 0 0 0.25 0"/>
<feBlend mode="normal" in2="BackgroundImageFix" result="effect1_dropShadow_24_56"/>
<feBlend mode="normal" in="SourceGraphic" in2="effect1_dropShadow_24_56" result="shape"/>
</filter>
<filter id="filter1_d_24_56" x="0.5" y="0.501465" width="118.749" height="204.809" filterUnits="userSpaceOnUse" color-interpolation-filters="sRGB">
<feFlood flood-opacity="0" result="BackgroundImageFix"/>
<feColorMatrix in="SourceAlpha" type="matrix" values="0 0 0 0 0 0 0 0 0 0 0 0 0 0 0 0 0 0 127 0" result="hardAlpha"/>
<feOffset dy="4"/>
<feGaussianBlur stdDeviation="2"/>
<feComposite in2="hardAlpha" operator="out"/>
<feColorMatrix type="matrix" values="0 0 0 0 0 0 0 0 0 0 0 0 0 0 0 0 0 0 0.25 0"/>
<feBlend mode="normal" in2="BackgroundImageFix" result="effect1_dropShadow_24_56"/>
<feBlend mode="normal" in="SourceGraphic" in2="effect1_dropShadow_24_56" result="shape"/>
</filter>
</defs>
</svg>
