<svg width="394" height="215" viewBox="0 0 394 215" fill="none" xmlns="http://www.w3.org/2000/svg">
<g filter="url(#filter0_d_27_128)">
<g filter="url(#filter1_d_27_128)">
<path d="M55.5767 110.214C30.218 112.849 12.6261 139.854 7 153.028C7.96056 156.184 14.657 165.707 33.7584 178.551C57.6351 194.606 73.2784 193.783 85.6284 176.081C97.9785 158.379 71.2201 148.911 73.2784 148.088C75.3368 147.264 81.5118 138.619 84.3934 131.621C87.2751 124.623 87.2751 106.921 55.5767 110.214Z" fill="#1576B4"/>
<path d="M55.5767 110.214C30.218 112.849 12.6261 139.854 7 153.028C7.96056 156.184 14.657 165.707 33.7584 178.551C57.6351 194.606 73.2784 193.783 85.6284 176.081C97.9785 158.379 71.2201 148.911 73.2784 148.088C75.3368 147.264 81.5118 138.619 84.3934 131.621C87.2751 124.623 87.2751 106.921 55.5767 110.214Z" stroke="white" stroke-width="4.11667" stroke-linecap="round"/>
</g>
<path d="M26.7598 171.149C30.8764 169.365 39.1921 163.245 39.5215 153.035M39.5215 153.035C41.9915 150.702 46.8491 144.802 49.8131 146.449C53.5181 148.507 59.2815 154.27 54.7531 158.387C50.2248 162.504 44.8731 162.092 43.6381 160.034C42.6501 158.387 40.482 154.682 39.5215 153.035Z" stroke="white" stroke-width="4.11667" stroke-linecap="round"/>
<circle cx="26.3485" cy="147.272" r="2.47" fill="white" stroke="white" stroke-width="0.823335"/>
</g>
<g filter="url(#filter2_d_27_128)">
<path d="M141.257 30.1184C149.161 27.813 154.705 38.4889 156.488 44.1151L157.312 69.2268C149.49 86.9285 139.198 83.2235 133.435 79.1068C128.824 75.8134 134.807 68.4034 138.375 65.1101C133.435 64.2868 131.377 62.2284 130.142 55.2301C129.154 49.6314 133.572 46.5851 135.905 45.7617C131.377 38.7634 131.377 33 141.257 30.1184Z" fill="#1576B4" stroke="white" stroke-width="4.11667" stroke-linecap="round"/>
<path d="M202.183 21.0615C212.475 23.806 231.823 34.8112 226.883 56.8766C220.708 84.4583 211.652 89.3983 182.423 87.7516C153.195 86.105 153.607 52.3483 158.135 42.0566C162.663 31.7649 168.015 24.3549 182.423 22.7082C181.051 19.5521 178.224 12.6635 177.895 10.3582C177.483 7.47653 184.07 -1.16848 192.715 5.41819C199.631 10.6875 201.909 18.0427 202.183 21.0615Z" fill="#1576B4"/>
<path d="M202.183 21.0615C212.475 23.806 231.823 34.8112 226.883 56.8766C220.708 84.4583 211.652 89.3983 182.423 87.7517C153.195 86.105 153.607 52.3483 158.135 42.0566C162.663 31.7649 168.015 24.3549 182.423 22.7082M202.183 21.0615C200.399 21.0615 193.95 21.3909 182.423 22.7082M202.183 21.0615C201.909 18.0427 199.631 10.6875 192.715 5.41819C184.07 -1.16848 177.483 7.47653 177.895 10.3582C178.224 12.6635 181.051 19.5521 182.423 22.7082" stroke="white" stroke-width="4.11667" stroke-linecap="round"/>
<path d="M195.185 97.6315C197.49 94.9968 197.792 89.947 197.655 87.7515H184.893C182.972 90.6331 179.706 97.2198 182.012 100.513C184.893 104.63 192.303 100.925 195.185 97.6315Z" fill="#1576B4" stroke="white" stroke-width="4.11667" stroke-linecap="round"/>
<path d="M196.279 51.9883C196.177 53.0007 196.136 54.2921 196.214 55.6933M202.042 66.8083C199.38 65.8689 197.854 63.4036 197.029 60.6333M196.214 55.6933C192.531 53.7722 184.505 51.9883 181.87 60.2216C179.235 68.455 190.878 63.9266 197.029 60.6333M196.214 55.6933C196.303 57.2809 196.545 59.0095 197.029 60.6333" stroke="white" stroke-width="4.11667" stroke-linecap="round"/>
<circle cx="213.157" cy="49.9301" r="2.88167" fill="white" stroke="white" stroke-width="0.823335"/>
</g>
<g filter="url(#filter3_d_27_128)">
<path d="M320.286 69.3157L283.429 102.744L280 105.316L298.857 127.601C298.857 147.316 307 147.744 309.571 145.173C311.629 143.116 308.714 135.744 307 132.316C320.286 140.458 347.457 156.401 349.857 155.03C352.257 153.659 342.857 139.316 337.857 132.316L355 112.173C363.571 127.482 376.571 131.98 382 132.316C364.171 116.544 374.571 88.8871 382 77.0299C363.143 79.0871 356.143 95.0299 355 102.744C352.286 101.173 345.657 96.0585 340.857 88.1728C334.857 78.3156 340.429 77.0299 344.286 69.3157C348.143 61.6014 352 53.8871 346.857 53.03C342.743 52.3442 327.429 63.6014 320.286 69.3157Z" fill="#1776B1" stroke="white" stroke-width="5" stroke-linecap="round"/>
<circle cx="304" cy="99.744" r="2.92857" fill="white" stroke="white"/>
<path d="M302.714 123.316C308.285 120.458 319.171 112.687 318.142 104.458" stroke="white" stroke-width="5" stroke-linecap="round"/>
</g>
<defs>
<filter id="filter0_d_27_128" x="0.8125" y="107.753" width="94.1445" height="106.311" filterUnits="userSpaceOnUse" color-interpolation-filters="sRGB">
<feFlood flood-opacity="0" result="BackgroundImageFix"/>
<feColorMatrix in="SourceAlpha" type="matrix" values="0 0 0 0 0 0 0 0 0 0 0 0 0 0 0 0 0 0 127 0" result="hardAlpha"/>
<feOffset dy="18"/>
<feGaussianBlur stdDeviation="2"/>
<feComposite in2="hardAlpha" operator="out"/>
<feColorMatrix type="matrix" values="0 0 0 0 0 0 0 0 0 0 0 0 0 0 0 0 0 0 0.25 0"/>
<feBlend mode="normal" in2="BackgroundImageFix" result="effect1_dropShadow_27_128"/>
<feBlend mode="normal" in="SourceGraphic" in2="effect1_dropShadow_27_128" result="shape"/>
</filter>
<filter id="filter1_d_27_128" x="1.51916" y="107.753" width="92.7312" height="90.8972" filterUnits="userSpaceOnUse" color-interpolation-filters="sRGB">
<feFlood flood-opacity="0" result="BackgroundImageFix"/>
<feColorMatrix in="SourceAlpha" type="matrix" values="0 0 0 0 0 0 0 0 0 0 0 0 0 0 0 0 0 0 127 0" result="hardAlpha"/>
<feOffset dy="3.29334"/>
<feGaussianBlur stdDeviation="1.64667"/>
<feComposite in2="hardAlpha" operator="out"/>
<feColorMatrix type="matrix" values="0 0 0 0 0 0 0 0 0 0 0 0 0 0 0 0 0 0 0.25 0"/>
<feBlend mode="normal" in2="BackgroundImageFix" result="effect1_dropShadow_27_128"/>
<feBlend mode="normal" in="SourceGraphic" in2="effect1_dropShadow_27_128" result="shape"/>
</filter>
<filter id="filter2_d_27_128" x="123.941" y="0.941406" width="109.794" height="125.444" filterUnits="userSpaceOnUse" color-interpolation-filters="sRGB">
<feFlood flood-opacity="0" result="BackgroundImageFix"/>
<feColorMatrix in="SourceAlpha" type="matrix" values="0 0 0 0 0 0 0 0 0 0 0 0 0 0 0 0 0 0 127 0" result="hardAlpha"/>
<feOffset dy="18"/>
<feGaussianBlur stdDeviation="2"/>
<feComposite in2="hardAlpha" operator="out"/>
<feColorMatrix type="matrix" values="0 0 0 0 0 0 0 0 0 0 0 0 0 0 0 0 0 0 0.25 0"/>
<feBlend mode="normal" in2="BackgroundImageFix" result="effect1_dropShadow_27_128"/>
<feBlend mode="normal" in="SourceGraphic" in2="effect1_dropShadow_27_128" result="shape"/>
</filter>
<filter id="filter3_d_27_128" x="272.379" y="50.5005" width="120.722" height="129.113" filterUnits="userSpaceOnUse" color-interpolation-filters="sRGB">
<feFlood flood-opacity="0" result="BackgroundImageFix"/>
<feColorMatrix in="SourceAlpha" type="matrix" values="0 0 0 0 0 0 0 0 0 0 0 0 0 0 0 0 0 0 127 0" result="hardAlpha"/>
<feOffset dy="18"/>
<feGaussianBlur stdDeviation="2"/>
<feComposite in2="hardAlpha" operator="out"/>
<feColorMatrix type="matrix" values="0 0 0 0 0 0 0 0 0 0 0 0 0 0 0 0 0 0 0.25 0"/>
<feBlend mode="normal" in2="BackgroundImageFix" result="effect1_dropShadow_27_128"/>
<feBlend mode="normal" in="SourceGraphic" in2="effect1_dropShadow_27_128" result="shape"/>
</filter>
</defs>
</svg>
