<svg width="177" height="177" viewBox="0 0 177 177" fill="none" xmlns="http://www.w3.org/2000/svg">
<g filter="url(#filter0_d_22_1073)">
<circle cx="88.5" cy="84.5" r="80" fill="white" stroke="#0D0000" stroke-width="9"/>
</g>
<g filter="url(#filter1_d_22_1073)">
<path d="M135.639 91.8396L88.3018 135L43.285 91.8396C38.9535 87.1987 31.5899 74.2042 36.7878 59.3533C43.285 40.7897 62.7768 42.1819 66.0254 43.1101C69.274 44.0383 85.5173 54.2483 88.3018 60.2815C90.6222 56.1046 98.0477 46.8229 110.578 43.1101C123.109 39.3974 135.639 44.9665 141.672 60.2815C146.499 72.5335 139.661 86.4252 135.639 91.8396Z" fill="#1576B4"/>
</g>
<path d="M65.5 50.5001C62.1666 48.6667 54 46.8001 48 54.0001C40.5 63.0001 41.5 67 42.5 73.5" stroke="white" stroke-width="4" stroke-linecap="round"/>
<path d="M98.5 59.5C99.1667 56.1667 104.3 49.2 119.5 48" stroke="white" stroke-width="4" stroke-linecap="round"/>
<defs>
<filter id="filter0_d_22_1073" x="0" y="0" width="177" height="177" filterUnits="userSpaceOnUse" color-interpolation-filters="sRGB">
<feFlood flood-opacity="0" result="BackgroundImageFix"/>
<feColorMatrix in="SourceAlpha" type="matrix" values="0 0 0 0 0 0 0 0 0 0 0 0 0 0 0 0 0 0 127 0" result="hardAlpha"/>
<feOffset dy="4"/>
<feGaussianBlur stdDeviation="2"/>
<feComposite in2="hardAlpha" operator="out"/>
<feColorMatrix type="matrix" values="0 0 0 0 0 0 0 0 0 0 0 0 0 0 0 0 0 0 0.25 0"/>
<feBlend mode="normal" in2="BackgroundImageFix" result="effect1_dropShadow_22_1073"/>
<feBlend mode="normal" in="SourceGraphic" in2="effect1_dropShadow_22_1073" result="shape"/>
</filter>
<filter id="filter1_d_22_1073" x="31.2873" y="42" width="115.758" height="100.425" filterUnits="userSpaceOnUse" color-interpolation-filters="sRGB">
<feFlood flood-opacity="0" result="BackgroundImageFix"/>
<feColorMatrix in="SourceAlpha" type="matrix" values="0 0 0 0 0 0 0 0 0 0 0 0 0 0 0 0 0 0 127 0" result="hardAlpha"/>
<feOffset dy="3.71272"/>
<feGaussianBlur stdDeviation="1.85636"/>
<feComposite in2="hardAlpha" operator="out"/>
<feColorMatrix type="matrix" values="0 0 0 0 0 0 0 0 0 0 0 0 0 0 0 0 0 0 0.25 0"/>
<feBlend mode="normal" in2="BackgroundImageFix" result="effect1_dropShadow_22_1073"/>
<feBlend mode="normal" in="SourceGraphic" in2="effect1_dropShadow_22_1073" result="shape"/>
</filter>
</defs>
</svg>
