<svg width="177" height="177" viewBox="0 0 177 177" fill="none" xmlns="http://www.w3.org/2000/svg">
<g filter="url(#filter0_d_22_1029)">
<circle cx="88.5" cy="84.5" r="80" fill="white" stroke="black" stroke-width="9"/>
<g filter="url(#filter1_d_22_1029)">
<path d="M81.5154 80.2178C79.4085 77.9102 73.9489 77.5005 71.4824 77.5841L73.7398 81.5973C74.2415 81.6809 75.6712 81.8732 77.3768 81.9735C79.5088 82.099 81.5154 85.4851 82.0171 86.6138C82.4184 87.5168 82.1843 112.24 82.0171 124.488H85.654C85.4868 112.992 85.1273 89.4481 85.027 87.2409C84.9016 84.4818 84.1491 83.1023 81.5154 80.2178Z" fill="#1576B4" stroke="#1576B4" stroke-width="3.27789" stroke-linecap="round"/>
<path d="M96.1889 80.2275C98.2959 77.92 103.755 77.5103 106.222 77.5939L103.964 81.6071C103.463 81.6907 102.033 81.883 100.328 81.9833C98.1955 82.1087 96.1889 85.4949 95.6873 86.6236C95.286 87.5265 95.5201 112.25 95.6873 124.498H92.0503C92.2175 113.002 92.577 89.4579 92.6774 87.2506C92.8028 84.4916 93.5553 83.112 96.1889 80.2275Z" fill="#1576B4" stroke="#1576B4" stroke-width="3.27789" stroke-linecap="round"/>
<path d="M74.4923 55.7628C78.7062 59.3746 73.071 65.8794 69.7267 68.6802C71.8587 69.9344 71.3571 73.3205 71.2316 75.7033C71.1313 77.6096 70.1865 78.8387 69.7267 79.2149C71.148 79.6329 74.4171 81.4723 76.1227 85.4855C78.2547 90.502 74.4923 98.1522 62.9544 99.6571C51.4164 101.162 41.6343 87.2413 42.0105 76.4558C42.3867 65.6703 51.1656 56.2644 57.1854 53.7562C63.2052 51.2479 69.225 51.2479 74.4923 55.7628Z" fill="#1576B4" stroke="#1576B4" stroke-width="3.27789" stroke-linecap="round"/>
<path d="M75.1195 70.3101C74.6179 70.1095 73.1547 68.1363 72.4858 67.1748L74.8687 64.792C75.7466 65.9207 77.8786 68.6798 78.6311 68.9306C79.2331 69.1313 83.6476 68.5962 85.7796 68.3035V73.4455C83.6058 73.1528 78.6813 72.7431 76.3737 73.4455C74.0661 74.1478 71.9006 75.9955 71.1063 76.8316C71.0645 75.9119 71.2066 73.7715 72.1096 72.5676C73.2383 71.0626 75.7466 70.561 75.1195 70.3101Z" fill="#1576B4" stroke="#1576B4" stroke-width="3.27789" stroke-linecap="round"/>
<path d="M103.337 55.6915C99.1234 59.3033 104.759 65.8081 108.103 68.609C105.971 69.8631 106.473 73.2492 106.598 75.6321C106.698 77.5383 107.643 78.7674 108.103 79.1436C106.682 79.5616 103.412 81.401 101.707 85.4142C99.5748 90.4307 103.337 98.0809 114.875 99.5858C126.413 101.091 136.195 87.17 135.819 76.3845C135.443 65.5991 126.664 56.1931 120.644 53.6849C114.624 51.1766 108.605 51.1766 103.337 55.6915Z" fill="#1576B4" stroke="#1576B4" stroke-width="3.27789" stroke-linecap="round"/>
<path d="M102.71 70.2389C103.212 70.0382 104.675 68.065 105.344 67.1035L102.961 64.7207C102.083 65.8494 99.9512 68.6085 99.1987 68.8593C98.5968 69.06 94.1822 68.5249 92.0502 68.2323V73.3742C94.224 73.0815 99.1486 72.6719 101.456 73.3742C103.764 74.0765 105.929 75.9242 106.724 76.7603C106.765 75.8406 106.623 73.7002 105.72 72.4963C104.592 70.9913 102.083 70.4897 102.71 70.2389Z" fill="#1576B4" stroke="#1576B4" stroke-width="3.27789" stroke-linecap="round"/>
</g>
<g filter="url(#filter2_d_22_1029)">
<path d="M65.9641 66.6738C67.3018 67.6353 69.9522 70.06 69.8519 72.0666C70.1027 72.9445 70.1779 75.2019 68.4723 77.2085C66.7667 79.2151 65.5042 79.8839 65.0862 79.9676" stroke="white" stroke-width="3.27789" stroke-linecap="round"/>
<path d="M112 66.5479C110.662 67.5093 108.012 69.934 108.112 71.9406C107.861 72.8185 107.786 75.0759 109.492 77.0825C111.197 79.0891 112.46 79.758 112.878 79.8416" stroke="white" stroke-width="3.27789" stroke-linecap="round"/>
<circle cx="111.238" cy="56.5149" r="1.04926" fill="white" stroke="white" stroke-width="0.409736"/>
<circle cx="108.353" cy="58.3966" r="0.422194" fill="white" stroke="white" stroke-width="0.409736"/>
<circle cx="111.865" cy="59.6505" r="0.422194" fill="white" stroke="white" stroke-width="0.409736"/>
<circle cx="1.25412" cy="1.25412" r="1.04926" transform="matrix(-1 0 0 1 70.6042 55.7627)" fill="white" stroke="white" stroke-width="0.409736"/>
<circle cx="0.627062" cy="0.627062" r="0.422194" transform="matrix(-1 0 0 1 72.8616 58.2705)" fill="white" stroke="white" stroke-width="0.409736"/>
<circle cx="0.627062" cy="0.627062" r="0.422194" transform="matrix(-1 0 0 1 69.3501 59.5244)" fill="white" stroke="white" stroke-width="0.409736"/>
<path d="M49.1587 90.126C50.0784 92.1744 52.8207 96.3464 56.4326 96.6474" stroke="white" stroke-width="3.27789" stroke-linecap="round"/>
<path d="M129.047 90.126C128.127 92.1744 125.385 96.3464 121.773 96.6474" stroke="white" stroke-width="3.27789" stroke-linecap="round"/>
</g>
</g>
<defs>
<filter id="filter0_d_22_1029" x="0" y="0" width="177" height="177" filterUnits="userSpaceOnUse" color-interpolation-filters="sRGB">
<feFlood flood-opacity="0" result="BackgroundImageFix"/>
<feColorMatrix in="SourceAlpha" type="matrix" values="0 0 0 0 0 0 0 0 0 0 0 0 0 0 0 0 0 0 127 0" result="hardAlpha"/>
<feOffset dy="4"/>
<feGaussianBlur stdDeviation="2"/>
<feComposite in2="hardAlpha" operator="out"/>
<feColorMatrix type="matrix" values="0 0 0 0 0 0 0 0 0 0 0 0 0 0 0 0 0 0 0.25 0"/>
<feBlend mode="normal" in2="BackgroundImageFix" result="effect1_dropShadow_22_1029"/>
<feBlend mode="normal" in="SourceGraphic" in2="effect1_dropShadow_22_1029" result="shape"/>
</filter>
<filter id="filter1_d_22_1029" x="37.312" y="50.3623" width="103.206" height="81.8725" filterUnits="userSpaceOnUse" color-interpolation-filters="sRGB">
<feFlood flood-opacity="0" result="BackgroundImageFix"/>
<feColorMatrix in="SourceAlpha" type="matrix" values="0 0 0 0 0 0 0 0 0 0 0 0 0 0 0 0 0 0 127 0" result="hardAlpha"/>
<feOffset dy="3.04906"/>
<feGaussianBlur stdDeviation="1.52453"/>
<feComposite in2="hardAlpha" operator="out"/>
<feColorMatrix type="matrix" values="0 0 0 0 0 0 0 0 0 0 0 0 0 0 0 0 0 0 0.25 0"/>
<feBlend mode="normal" in2="BackgroundImageFix" result="effect1_dropShadow_22_1029"/>
<feBlend mode="normal" in="SourceGraphic" in2="effect1_dropShadow_22_1029" result="shape"/>
</filter>
<filter id="filter2_d_22_1029" x="44.4702" y="55.2607" width="89.2649" height="49.1235" filterUnits="userSpaceOnUse" color-interpolation-filters="sRGB">
<feFlood flood-opacity="0" result="BackgroundImageFix"/>
<feColorMatrix in="SourceAlpha" type="matrix" values="0 0 0 0 0 0 0 0 0 0 0 0 0 0 0 0 0 0 127 0" result="hardAlpha"/>
<feOffset dy="3.04906"/>
<feGaussianBlur stdDeviation="1.52453"/>
<feComposite in2="hardAlpha" operator="out"/>
<feColorMatrix type="matrix" values="0 0 0 0 0 0 0 0 0 0 0 0 0 0 0 0 0 0 0.25 0"/>
<feBlend mode="normal" in2="BackgroundImageFix" result="effect1_dropShadow_22_1029"/>
<feBlend mode="normal" in="SourceGraphic" in2="effect1_dropShadow_22_1029" result="shape"/>
</filter>
</defs>
</svg>
