<svg width="237" height="117" viewBox="0 0 237 117" fill="none" xmlns="http://www.w3.org/2000/svg">
<g filter="url(#filter0_d_24_97)">
<g filter="url(#filter1_d_24_97)">
<path fill-rule="evenodd" clip-rule="evenodd" d="M26.8646 19.8727C34.0257 15.4497 46.7155 13.2369 57.8592 14.234C63.3743 14.7274 67.9182 15.9634 70.8996 17.656C73.8086 19.3075 74.4744 20.871 74.4744 22.1933C74.4744 27.3136 70.2549 33.0277 63.2884 37.17C59.9702 39.1431 56.4201 40.496 53.2351 41.0878C49.9509 41.6981 47.6082 41.405 46.2843 40.7923C43.5276 39.5166 40.2587 40.7172 38.9829 43.4738C37.7072 46.2305 38.9078 49.4995 41.6645 50.7752C45.8405 52.7077 50.7478 52.7384 55.2448 51.9027C59.8411 51.0486 64.6035 49.1857 68.9103 46.6249C77.1938 41.6994 85.4744 33.0731 85.4744 22.1933C85.4744 15.5157 81.2651 10.8917 76.3304 8.09009C71.468 5.32958 65.1995 3.84678 58.8395 3.27773C46.2333 2.1498 30.9231 4.437 21.0842 10.514C10.73 16.9092 5.7408 27.7784 7.27139 39.4109C8.78021 50.878 16.477 62.395 29.9448 71.2837C42.163 79.3477 57.1662 77.2786 69.6832 72.6811C82.3528 68.0275 93.9838 60.2636 100.932 54.4713C100.956 54.4533 100.992 54.4258 101.04 54.3896C101.169 54.2937 101.384 54.1368 101.684 53.9313C102.283 53.5199 103.215 52.9162 104.457 52.2194C106.944 50.8237 110.644 49.0697 115.373 47.7304C124.762 45.0716 138.35 43.9972 154.863 50.8623C157.668 52.0284 160.887 50.6999 162.053 47.8951C163.219 45.0902 161.891 41.8712 159.086 40.7051C139.999 32.7703 123.837 33.9007 112.376 37.1467C106.68 38.7599 102.18 40.8832 99.0732 42.6269C97.518 43.4997 96.305 44.2812 95.4581 44.8625C95.0344 45.1534 94.7016 45.3947 94.4626 45.573C94.3431 45.6622 94.2469 45.7356 94.1745 45.7918C94.1562 45.806 94.1393 45.8191 94.124 45.8311C94.1091 45.8427 94.0957 45.8533 94.0837 45.8627L94.0517 45.8881L94.0391 45.8982L94.0337 45.9026C94.0312 45.9046 94.0288 45.9065 97.4744 50.1934L94.0288 45.9065C94.0017 45.9283 93.9748 45.9503 93.9481 45.9726C87.7218 51.1742 77.1376 58.2245 65.8906 62.3556C54.4492 66.558 43.7858 67.239 36.004 62.103C24.4718 54.4917 19.1686 45.5088 18.1774 37.9759C17.208 30.6083 20.2187 23.9775 26.8646 19.8727ZM102.529 76.9174L105.974 81.2044C102.529 76.9174 102.531 76.9155 102.534 76.9135L102.539 76.9091L102.552 76.8991L102.584 76.8737C102.608 76.8545 102.638 76.8308 102.674 76.8027C102.747 76.7466 102.843 76.6731 102.963 76.5839C103.202 76.4056 103.534 76.1643 103.958 75.8735C104.805 75.2921 106.018 74.5107 107.573 73.6378C110.68 71.8942 115.18 69.7708 120.876 68.1576C132.337 64.9117 148.499 63.7812 167.586 71.7161C189.484 80.82 201.813 81.9847 208.907 80.751C215.379 79.6255 218.067 76.4459 220.626 73.4187L220.776 73.242C222.738 70.9232 226.208 70.634 228.527 72.5961C230.846 74.5582 231.135 78.0286 229.173 80.3474L228.977 80.5795C226.06 84.0317 221.207 89.777 210.792 91.5883C200.635 93.3546 185.964 91.2693 163.363 81.8733C146.85 75.0081 133.261 76.0825 123.873 78.7414C119.144 80.0807 115.444 81.8347 112.957 83.2304C111.715 83.9272 110.783 84.5309 110.184 84.9422C109.884 85.1478 109.669 85.3047 109.54 85.4006C109.476 85.4485 109.434 85.481 109.414 85.4967L109.403 85.505L109.402 85.5055C107.035 87.3924 103.586 87.0117 101.687 84.65C99.7845 82.2824 100.161 78.8204 102.529 76.9174Z" fill="#1776B1"/>
<path d="M57.8592 14.234L57.6364 16.724L57.6364 16.724L57.8592 14.234ZM26.8646 19.8727L28.1783 21.9997L28.1783 21.9997L26.8646 19.8727ZM70.8996 17.656L72.1339 15.4819L72.1339 15.4819L70.8996 17.656ZM63.2884 37.17L62.0107 35.0212L62.0107 35.0212L63.2884 37.17ZM53.2351 41.0878L52.7784 38.6299L52.7784 38.6299L53.2351 41.0878ZM46.2843 40.7923L45.2343 43.0611L45.2343 43.0611L46.2843 40.7923ZM38.9829 43.4738L36.7141 42.4239L36.7141 42.4239L38.9829 43.4738ZM41.6645 50.7752L42.7144 48.5063L42.7144 48.5063L41.6645 50.7752ZM55.2448 51.9027L54.7881 49.4448L54.7881 49.4448L55.2448 51.9027ZM68.9103 46.6249L67.6326 44.476L67.6326 44.476L68.9103 46.6249ZM76.3304 8.09009L75.0961 10.2642L75.0961 10.2642L76.3304 8.09009ZM58.8395 3.27773L58.6167 5.76778L58.6167 5.76778L58.8395 3.27773ZM21.0842 10.514L19.7704 8.38696L19.7704 8.38696L21.0842 10.514ZM7.27139 39.4109L9.75002 39.0847L9.75002 39.0847L7.27139 39.4109ZM29.9448 71.2837L31.3219 69.1972L31.3219 69.1972L29.9448 71.2837ZM69.6832 72.6811L70.5451 75.0278L70.5451 75.0278L69.6832 72.6811ZM100.932 54.4713L99.4094 52.4887C99.383 52.509 99.357 52.5297 99.3315 52.551L100.932 54.4713ZM101.04 54.3896L102.535 56.3934L102.535 56.3934L101.04 54.3896ZM101.684 53.9313L103.099 55.9924L103.099 55.9924L101.684 53.9313ZM104.457 52.2194L103.233 50.0393L103.233 50.0393L104.457 52.2194ZM115.373 47.7304L116.054 50.1358L116.054 50.1358L115.373 47.7304ZM154.863 50.8623L155.823 48.5539L155.823 48.5539L154.863 50.8623ZM162.053 47.8951L164.361 48.8548L164.361 48.8547L162.053 47.8951ZM159.086 40.7051L158.126 43.0136L158.126 43.0136L159.086 40.7051ZM112.376 37.1467L111.694 34.7413L111.694 34.7413L112.376 37.1467ZM99.0732 42.6269L100.297 44.807L100.297 44.807L99.0732 42.6269ZM95.4581 44.8625L96.873 46.9236L96.873 46.9236L95.4581 44.8625ZM94.4626 45.573L92.9676 43.5692L92.9676 43.5692L94.4626 45.573ZM94.1745 45.7918L95.706 47.7678L95.7062 47.7676L94.1745 45.7918ZM94.124 45.8311L95.6646 47.8L95.6647 47.7999L94.124 45.8311ZM94.0837 45.8627L92.5344 43.9007L92.5306 43.9037L94.0837 45.8627ZM94.0517 45.8881L92.4987 43.929L92.492 43.9344L94.0517 45.8881ZM94.0391 45.8982L92.4793 43.9444L92.4754 43.9476L94.0391 45.8982ZM94.0337 45.9026L92.4699 43.952L92.4687 43.953L94.0337 45.9026ZM95.5258 51.7596C96.3908 52.8358 97.9644 53.007 99.0406 52.142C100.117 51.277 100.288 49.7034 99.423 48.6272L95.5258 51.7596ZM94.0288 45.9065L95.9774 44.3403C95.1124 43.2641 93.5388 43.0929 92.4626 43.9579L94.0288 45.9065ZM93.9481 45.9726L92.3453 44.0539L92.3453 44.054L93.9481 45.9726ZM65.8906 62.3556L66.7525 64.7023L66.7525 64.7023L65.8906 62.3556ZM36.004 62.103L37.3811 60.0165L37.3811 60.0165L36.004 62.103ZM18.1774 37.9759L15.6987 38.302L15.6987 38.302L18.1774 37.9759ZM104.026 82.7706C104.891 83.8467 106.464 84.0179 107.541 83.153C108.617 82.288 108.788 80.7144 107.923 79.6382L104.026 82.7706ZM102.529 76.9174L104.477 75.3513C103.612 74.2751 102.039 74.1039 100.963 74.9688L102.529 76.9174ZM102.534 76.9135L100.97 74.9629L100.967 74.9654L102.534 76.9135ZM102.539 76.9091L100.98 74.9551L100.975 74.9586L102.539 76.9091ZM102.552 76.8991L100.999 74.9401L100.992 74.945L102.552 76.8991ZM102.584 76.8737L101.034 74.9117L101.03 74.9148L102.584 76.8737ZM102.674 76.8027L101.143 74.8268L101.143 74.8269L102.674 76.8027ZM102.963 76.5839L101.468 74.5802L101.468 74.5802L102.963 76.5839ZM103.958 75.8735L102.543 73.8124L102.543 73.8124L103.958 75.8735ZM107.573 73.6378L108.797 75.8179L108.797 75.8179L107.573 73.6378ZM120.876 68.1576L121.557 70.563L121.557 70.563L120.876 68.1576ZM167.586 71.7161L166.626 74.0245L166.626 74.0245L167.586 71.7161ZM208.907 80.751L209.335 83.214L209.335 83.214L208.907 80.751ZM220.626 73.4187L218.717 71.8043L218.717 71.8046L220.626 73.4187ZM220.776 73.242L218.867 71.6271L218.867 71.6277L220.776 73.242ZM228.527 72.5961L226.912 74.5045L226.912 74.5045L228.527 72.5961ZM229.173 80.3474L227.265 78.7325L227.264 78.7336L229.173 80.3474ZM228.977 80.5795L227.067 78.9657L227.067 78.9662L228.977 80.5795ZM210.792 91.5883L210.363 89.1253L210.363 89.1253L210.792 91.5883ZM163.363 81.8733L162.403 84.1818L162.403 84.1818L163.363 81.8733ZM123.873 78.7414L123.192 76.336L123.192 76.336L123.873 78.7414ZM112.957 83.2304L111.733 81.0503L111.733 81.0503L112.957 83.2304ZM110.184 84.9422L111.599 87.0033L111.599 87.0033L110.184 84.9422ZM109.54 85.4006L111.035 87.4043L111.035 87.4043L109.54 85.4006ZM109.414 85.4967L107.882 83.5207L107.878 83.524L109.414 85.4967ZM109.403 85.505L110.929 87.485L110.939 87.4777L109.403 85.505ZM109.402 85.5055L107.876 83.5255C107.865 83.5338 107.855 83.5421 107.844 83.5506L109.402 85.5055ZM101.687 84.65L99.7389 86.2162L99.7389 86.2162L101.687 84.65ZM58.082 11.7439C46.6053 10.717 33.3202 12.947 25.5509 17.7457L28.1783 21.9997C34.7312 17.9524 46.8257 15.7567 57.6364 16.724L58.082 11.7439ZM72.1339 15.4819C68.7249 13.5466 63.789 12.2545 58.082 11.7439L57.6364 16.724C62.9596 17.2003 67.1115 18.3802 69.6653 19.83L72.1339 15.4819ZM76.9744 22.1933C76.9744 21.0623 76.674 19.8346 75.8307 18.6212C75.0209 17.4562 73.7949 16.4249 72.1339 15.4819L69.6653 19.83C70.9133 20.5386 71.4747 21.1148 71.725 21.475C71.9418 21.7869 71.9744 22.0021 71.9744 22.1933H76.9744ZM64.5661 39.3189C71.843 34.992 76.9744 28.6144 76.9744 22.1933H71.9744C71.9744 26.0129 68.6669 31.0634 62.0107 35.0212L64.5661 39.3189ZM53.6919 43.5458C57.1976 42.8943 61.0232 41.4255 64.5661 39.3189L62.0107 35.0212C58.9172 36.8606 55.6427 38.0977 52.7784 38.6299L53.6919 43.5458ZM45.2343 43.0611C47.2053 43.9732 50.1301 44.2076 53.6919 43.5458L52.7784 38.6299C49.7717 39.1886 48.0112 38.8367 47.3342 38.5235L45.2343 43.0611ZM41.2518 44.5238C41.9476 43.0201 43.7307 42.3653 45.2343 43.0611L47.3342 38.5235C43.3245 36.6679 38.5697 38.4142 36.7141 42.4239L41.2518 44.5238ZM42.7144 48.5063C41.2108 47.8105 40.5559 46.0274 41.2518 44.5238L36.7141 42.4239C34.8585 46.4336 36.6048 51.1884 40.6145 53.044L42.7144 48.5063ZM54.7881 49.4448C50.5658 50.2294 46.2417 50.1386 42.7144 48.5063L40.6145 53.044C45.4393 55.2768 50.9299 55.2473 55.7016 54.3606L54.7881 49.4448ZM67.6326 44.476C63.5505 46.9033 59.0636 48.6503 54.7881 49.4448L55.7016 54.3606C60.6187 53.4469 65.6566 51.4681 70.1881 48.7737L67.6326 44.476ZM82.9744 22.1933C82.9744 31.759 75.6237 39.7245 67.6326 44.476L70.1881 48.7737C78.764 43.6744 87.9744 34.3871 87.9744 22.1933H82.9744ZM75.0961 10.2642C79.5818 12.8108 82.9744 16.7423 82.9744 22.1933H87.9744C87.9744 14.2891 82.9485 8.97256 77.5647 5.91603L75.0961 10.2642ZM58.6167 5.76778C64.7846 6.31964 70.6612 7.74631 75.0961 10.2642L77.5647 5.91603C72.2749 2.91284 65.6144 1.37392 59.0623 0.787677L58.6167 5.76778ZM22.3979 12.641C31.6279 6.94006 46.3424 4.66955 58.6167 5.76778L59.0623 0.787677C46.1241 -0.36995 30.2182 1.93393 19.7704 8.38696L22.3979 12.641ZM9.75002 39.0847C8.34695 28.4214 12.8867 18.5155 22.3979 12.641L19.7704 8.38696C8.57336 15.3028 3.13465 27.1354 4.79275 39.737L9.75002 39.0847ZM31.3219 69.1972C18.2927 60.5979 11.141 49.6564 9.75002 39.0847L4.79275 39.737C6.41939 52.0995 14.6614 64.1921 28.5677 73.3702L31.3219 69.1972ZM68.8212 70.3344C56.5456 74.8433 42.5301 76.5946 31.3219 69.1972L28.5677 73.3702C41.7958 82.1008 57.7869 79.714 70.5451 75.0278L68.8212 70.3344ZM99.3315 52.551C92.5447 58.2085 81.1589 65.8027 68.8212 70.3344L70.5451 75.0278C83.5468 70.2523 95.4229 62.3187 102.533 56.3916L99.3315 52.551ZM99.5455 52.3858C99.4873 52.4292 99.4418 52.4637 99.4094 52.4887L102.455 56.4539C102.47 56.4429 102.496 56.4225 102.535 56.3934L99.5455 52.3858ZM100.269 51.8702C99.9411 52.0951 99.699 52.2712 99.5454 52.3858L102.535 56.3934C102.639 56.3163 102.827 56.1785 103.099 55.9924L100.269 51.8702ZM103.233 50.0393C101.92 50.7761 100.924 51.4202 100.269 51.8702L103.099 55.9924C103.641 55.6196 104.51 55.0564 105.68 54.3996L103.233 50.0393ZM114.692 45.325C109.743 46.7265 105.861 48.5645 103.233 50.0393L105.68 54.3996C108.026 53.0829 111.545 51.4128 116.054 50.1358L114.692 45.325ZM155.823 48.5539C138.725 41.4457 124.552 42.5327 114.692 45.325L116.054 50.1358C124.971 47.6105 137.974 46.5486 153.903 53.1708L155.823 48.5539ZM159.745 46.9354C159.109 48.4653 157.353 49.1899 155.823 48.5539L153.903 53.1708C157.983 54.8669 162.665 52.9345 164.361 48.8548L159.745 46.9354ZM158.126 43.0136C159.656 43.6496 160.381 45.4055 159.745 46.9354L164.361 48.8547C166.058 44.775 164.125 40.0927 160.045 38.3967L158.126 43.0136ZM113.057 39.5521C124.048 36.4395 139.625 35.3219 158.126 43.0136L160.045 38.3967C140.374 30.2186 123.627 31.3619 111.694 34.7413L113.057 39.5521ZM100.297 44.807C103.263 43.1424 107.581 41.103 113.057 39.5521L111.694 34.7413C105.779 36.4167 101.097 38.624 97.8497 40.4467L100.297 44.807ZM96.873 46.9236C97.6636 46.3809 98.8128 45.6398 100.297 44.807L97.8497 40.4467C96.2231 41.3596 94.9464 42.1814 94.0432 42.8014L96.873 46.9236ZM95.9575 47.5768C96.1714 47.4172 96.4776 47.195 96.873 46.9236L94.0432 42.8014C93.5913 43.1117 93.2318 43.3721 92.9676 43.5692L95.9575 47.5768ZM95.7062 47.7676C95.7666 47.7207 95.8506 47.6566 95.9576 47.5767L92.9676 43.5692C92.8355 43.6678 92.7272 43.7505 92.6428 43.8159L95.7062 47.7676ZM95.6647 47.7999C95.6769 47.7904 95.6906 47.7797 95.706 47.7678L92.643 43.8158C92.6217 43.8323 92.6018 43.8478 92.5833 43.8622L95.6647 47.7999ZM95.633 47.8248C95.6422 47.8176 95.6527 47.8093 95.6646 47.8L92.5835 43.8621C92.5656 43.8761 92.5493 43.889 92.5344 43.9007L95.633 47.8248ZM95.6048 47.8472L95.6368 47.8218L92.5306 43.9037L92.4987 43.929L95.6048 47.8472ZM95.5989 47.8519L95.6115 47.8418L92.492 43.9344L92.4793 43.9444L95.5989 47.8519ZM95.5974 47.8531L95.6029 47.8487L92.4754 43.9476L92.4699 43.952L95.5974 47.8531ZM99.423 48.6272C97.7 46.4835 96.8405 45.4129 96.4122 44.8783C96.1966 44.6091 96.0948 44.4812 96.0477 44.4216C96.0182 44.3843 96.0262 44.3938 96.0437 44.4173C96.0497 44.4253 96.064 44.4447 96.0822 44.4705C96.0941 44.4876 96.1394 44.552 96.1906 44.6393C96.2163 44.6832 96.2656 44.77 96.3169 44.8849C96.3594 44.9804 96.4619 45.2221 96.5087 45.5514C96.5623 45.9285 96.5519 46.5023 96.2318 47.0933C95.9565 47.6016 95.5498 47.8914 95.5987 47.8521L92.4687 43.953C92.4687 43.953 92.4623 43.9582 92.4559 43.9633C92.4495 43.9685 92.4306 43.9842 92.418 43.9947C92.3859 44.0219 92.334 44.0673 92.2736 44.1271C92.1485 44.2511 91.9808 44.4435 91.8353 44.712C91.5151 45.3031 91.5048 45.877 91.5584 46.2544C91.6052 46.5838 91.7077 46.8258 91.7505 46.9216C91.8019 47.0369 91.8514 47.1242 91.8775 47.1686C91.9294 47.2571 91.9757 47.3232 91.9894 47.3428C92.0093 47.3711 92.0261 47.3937 92.0353 47.406C92.0656 47.4468 92.0999 47.4902 92.1237 47.5204C92.1831 47.5956 92.2955 47.7366 92.5097 48.004C92.941 48.5425 93.8032 49.6164 95.5258 51.7596L99.423 48.6272ZM92.0802 47.4727L95.5258 51.7596L99.423 48.6272L95.9774 44.3403L92.0802 47.4727ZM95.5509 47.8912C95.5655 47.879 95.5802 47.867 95.5949 47.8551L92.4626 43.9579C92.4232 43.9895 92.3841 44.0216 92.3453 44.0539L95.5509 47.8912ZM66.7525 64.7023C78.3324 60.449 89.1624 53.2284 95.551 47.8911L92.3453 44.054C86.2813 49.1201 75.9429 56 65.0286 60.0089L66.7525 64.7023ZM34.6269 64.1895C43.4147 69.9894 55.0624 68.9961 66.7525 64.7023L65.0286 60.0089C53.836 64.12 44.1569 64.4885 37.3811 60.0165L34.6269 64.1895ZM15.6987 38.302C16.8073 46.7274 22.653 56.2868 34.6269 64.1895L37.3811 60.0165C26.2905 52.6967 21.5298 44.2902 20.656 37.6497L15.6987 38.302ZM25.5509 17.7457C18.0624 22.3709 14.6018 29.9649 15.6987 38.302L20.656 37.6497C19.8142 31.2517 22.375 25.5841 28.1783 21.9997L25.5509 17.7457ZM107.923 79.6382L104.477 75.3513L100.58 78.4836L104.026 82.7706L107.923 79.6382ZM100.967 74.9654C101.016 74.9262 100.61 75.216 100.335 75.7239C100.015 76.3144 100.005 76.8877 100.058 77.2649C100.105 77.5943 100.208 77.8363 100.25 77.9322C100.302 78.0476 100.351 78.1349 100.377 78.1793C100.429 78.2679 100.476 78.334 100.489 78.3536C100.509 78.3819 100.526 78.4046 100.535 78.4169C100.566 78.4577 100.6 78.5012 100.624 78.5313C100.683 78.6066 100.796 78.7476 101.01 79.015C101.441 79.5535 102.303 80.6273 104.026 82.7706L107.923 79.6382C106.2 77.4945 105.34 76.4239 104.912 75.8892C104.697 75.62 104.595 75.4922 104.548 75.4326C104.518 75.3953 104.526 75.4048 104.544 75.4283C104.55 75.4364 104.564 75.4558 104.582 75.4816C104.594 75.4987 104.639 75.5631 104.691 75.6505C104.716 75.6944 104.766 75.7813 104.817 75.8962C104.86 75.9918 104.962 76.2335 105.009 76.5627C105.062 76.9398 105.052 77.5129 104.732 78.1033C104.458 78.6111 104.052 78.9009 104.1 78.8616L100.967 74.9654ZM100.975 74.9586L100.97 74.9629L104.097 78.8641L104.103 78.8597L100.975 74.9586ZM100.992 74.945L100.98 74.9551L104.099 78.8631L104.111 78.8531L100.992 74.945ZM101.03 74.9148L100.999 74.9401L104.105 78.858L104.137 78.8327L101.03 74.9148ZM101.143 74.8269C101.101 74.8595 101.065 74.8878 101.034 74.9117L104.133 78.8358C104.151 78.8212 104.176 78.8021 104.206 78.7786L101.143 74.8269ZM101.468 74.5802C101.336 74.6787 101.227 74.7615 101.143 74.8268L104.206 78.7786C104.267 78.7317 104.351 78.6675 104.458 78.5877L101.468 74.5802ZM102.543 73.8124C102.091 74.1226 101.732 74.3831 101.468 74.5802L104.458 78.5877C104.671 78.4281 104.978 78.206 105.373 77.9345L102.543 73.8124ZM106.35 71.4577C104.723 72.3705 103.446 73.1924 102.543 73.8124L105.373 77.9345C106.164 77.3918 107.313 76.6508 108.797 75.8179L106.35 71.4577ZM120.194 65.7523C114.279 67.4277 109.597 69.635 106.35 71.4577L108.797 75.8179C111.763 74.1534 116.081 72.114 121.557 70.563L120.194 65.7523ZM168.545 69.4076C148.874 61.2296 132.127 62.3729 120.194 65.7523L121.557 70.563C132.548 67.4504 148.124 66.3329 166.626 74.0245L168.545 69.4076ZM208.479 78.288C202.081 79.4006 190.285 78.4453 168.545 69.4076L166.626 74.0245C188.684 83.1948 201.545 84.5688 209.335 83.214L208.479 78.288ZM218.717 71.8046C217.419 73.3403 216.285 74.6658 214.76 75.7784C213.281 76.8574 211.352 77.7883 208.479 78.288L209.335 83.214C212.934 82.5882 215.584 81.3665 217.707 79.8176C219.784 78.3022 221.274 76.5243 222.535 75.0328L218.717 71.8046ZM218.867 71.6277L218.717 71.8043L222.535 75.033L222.685 74.8563L218.867 71.6277ZM230.142 70.6876C226.769 67.8336 221.721 68.2543 218.867 71.6271L222.684 74.8568C223.754 73.592 225.647 73.4343 226.912 74.5045L230.142 70.6876ZM231.081 81.9622C233.935 78.5894 233.515 73.5416 230.142 70.6876L226.912 74.5045C228.177 75.5748 228.335 77.4677 227.265 78.7325L231.081 81.9622ZM230.886 82.1933L231.082 81.9612L227.264 78.7336L227.067 78.9657L230.886 82.1933ZM211.22 94.0514C222.534 92.0837 227.875 85.7579 230.887 82.1928L227.067 78.9662C224.246 82.3055 219.88 87.4703 210.363 89.1253L211.22 94.0514ZM162.403 84.1818C185.164 93.6442 200.368 95.9387 211.22 94.0514L210.363 89.1253C200.903 90.7706 186.764 88.8944 164.323 79.5648L162.403 84.1818ZM124.554 81.1468C133.471 78.6215 146.474 77.5596 162.403 84.1818L164.323 79.5648C147.225 72.4567 133.052 73.5436 123.192 76.336L124.554 81.1468ZM114.18 85.4105C116.526 84.0939 120.045 82.4238 124.554 81.1468L123.192 76.336C118.243 77.7375 114.361 79.5755 111.733 81.0503L114.18 85.4105ZM111.599 87.0033C112.141 86.6306 113.01 86.0673 114.18 85.4105L111.733 81.0503C110.42 81.7871 109.424 82.4312 108.769 82.8812L111.599 87.0033ZM111.035 87.4043C111.139 87.3272 111.327 87.1895 111.599 87.0033L108.769 82.8811C108.441 83.106 108.199 83.2822 108.045 83.3968L111.035 87.4043ZM110.945 87.4727C110.953 87.4662 110.984 87.4429 111.035 87.4043L108.045 83.3968C107.969 83.4541 107.914 83.4959 107.882 83.5207L110.945 87.4727ZM110.939 87.4777L110.949 87.4694L107.878 83.524L107.867 83.5323L110.939 87.4777ZM110.928 87.4856L110.929 87.485L107.877 83.525L107.876 83.5255L110.928 87.4856ZM99.7389 86.2162C102.5 89.6514 107.517 90.2051 110.96 87.4605L107.844 83.5506C106.553 84.5796 104.671 84.3719 103.636 83.0838L99.7389 86.2162ZM100.963 74.9688C97.5188 77.7368 96.9709 82.7724 99.7389 86.2162L103.636 83.0838C102.598 81.7924 102.804 79.904 104.095 78.866L100.963 74.9688Z" fill="white"/>
</g>
</g>
<defs>
<filter id="filter0_d_24_97" x="0.5" y="0.500488" width="236.475" height="116.159" filterUnits="userSpaceOnUse" color-interpolation-filters="sRGB">
<feFlood flood-opacity="0" result="BackgroundImageFix"/>
<feColorMatrix in="SourceAlpha" type="matrix" values="0 0 0 0 0 0 0 0 0 0 0 0 0 0 0 0 0 0 127 0" result="hardAlpha"/>
<feOffset dy="18"/>
<feGaussianBlur stdDeviation="2"/>
<feComposite in2="hardAlpha" operator="out"/>
<feColorMatrix type="matrix" values="0 0 0 0 0 0 0 0 0 0 0 0 0 0 0 0 0 0 0.25 0"/>
<feBlend mode="normal" in2="BackgroundImageFix" result="effect1_dropShadow_24_97"/>
<feBlend mode="normal" in="SourceGraphic" in2="effect1_dropShadow_24_97" result="shape"/>
</filter>
<filter id="filter1_d_24_97" x="0.5" y="0.500488" width="236.475" height="102.159" filterUnits="userSpaceOnUse" color-interpolation-filters="sRGB">
<feFlood flood-opacity="0" result="BackgroundImageFix"/>
<feColorMatrix in="SourceAlpha" type="matrix" values="0 0 0 0 0 0 0 0 0 0 0 0 0 0 0 0 0 0 127 0" result="hardAlpha"/>
<feOffset dy="4"/>
<feGaussianBlur stdDeviation="2"/>
<feComposite in2="hardAlpha" operator="out"/>
<feColorMatrix type="matrix" values="0 0 0 0 0 0 0 0 0 0 0 0 0 0 0 0 0 0 0.25 0"/>
<feBlend mode="normal" in2="BackgroundImageFix" result="effect1_dropShadow_24_97"/>
<feBlend mode="normal" in="SourceGraphic" in2="effect1_dropShadow_24_97" result="shape"/>
</filter>
</defs>
</svg>
